<svg xmlns="http://www.w3.org/2000/svg" width="200" height="200" viewBox="0 0 200 200" version="1.1"><path d="M 0.070 44.750 L 0.141 89.500 2.033 80.500 C 3.074 75.550, 4.684 69.475, 5.610 67 C 18.810 31.736, 49.735 6.547, 86 1.522 C 94.731 0.313, 91.633 0.198, 47.750 0.103 L 0 0 0.070 44.750 M 111.153 1.039 C 122.348 2.346, 134.017 5.832, 144.500 11 C 172.097 24.606, 191.815 50.107, 198.373 80.677 C 199.744 87.065, 199.842 84.713, 199.918 43.750 L 200 0 152.250 0.131 C 123.815 0.210, 107.191 0.577, 111.153 1.039 M 101.715 7.750 C 101.057 8.973, 102.144 17, 102.967 17 C 103.384 17, 103.674 14.750, 103.612 12 C 103.510 7.454, 102.768 5.791, 101.715 7.750 M 94.244 8.750 C 94.470 9.162, 95.281 10.962, 96.047 12.750 C 97.573 16.314, 98.482 16.794, 99.362 14.500 C 99.678 13.675, 99.490 13, 98.944 13 C 98.398 13, 97.523 11.875, 97 10.500 C 96.477 9.125, 95.551 8, 94.941 8 C 94.332 8, 94.018 8.338, 94.244 8.750 M 108.500 12.417 C 108.500 14.844, 108.838 17.168, 109.250 17.582 C 109.662 17.995, 110.006 17.021, 110.014 15.417 C 110.021 13.813, 110.299 11.488, 110.630 10.250 C 111.040 8.720, 110.796 8.001, 109.867 8.002 C 108.918 8.003, 108.500 9.353, 108.500 12.417 M 115.307 13.500 C 114.550 16.810, 114.580 18, 115.421 18 C 116.049 18, 116.659 16.851, 116.775 15.447 C 116.891 14.043, 117.455 12.018, 118.028 10.947 C 118.825 9.459, 118.748 9, 117.704 9 C 116.903 9, 115.910 10.864, 115.307 13.500 M 81.733 14.250 C 82.317 18.830, 82.666 19.667, 83.599 18.734 C 84.441 17.893, 83.002 10, 82.007 10 C 81.558 10, 81.434 11.912, 81.733 14.250 M 121.760 12.526 C 122.065 14.123, 121.584 15.802, 120.468 17.035 C 118.366 19.358, 120.142 19.715, 122.429 17.429 C 124.362 15.495, 124.457 12.624, 122.637 11.114 C 121.533 10.197, 121.366 10.465, 121.760 12.526 M 127.446 16.435 C 125.494 20.649, 125.482 20.893, 127.197 21.341 C 128.190 21.601, 128.763 21.425, 128.470 20.951 C 128.176 20.476, 128.626 18.438, 129.468 16.422 C 131.227 12.212, 131.265 12, 130.250 12.001 C 129.838 12.001, 128.576 13.997, 127.446 16.435 M 68.087 14.282 C 70.881 16.427, 71.947 19.341, 70.738 21.526 C 69.759 23.296, 69.819 23.358, 71.323 22.128 C 73.681 20.198, 73.408 16.399, 70.777 14.557 C 68.176 12.735, 65.749 12.487, 68.087 14.282 M 64.011 15.487 C 62.356 17.481, 63.511 21.668, 66.097 23.052 C 69.041 24.627, 69.835 23.273, 67.094 21.353 C 65.380 20.153, 64.915 19.035, 65.231 16.876 C 65.719 13.555, 65.665 13.494, 64.011 15.487 M 133.785 16.656 C 134.138 18.502, 133.732 19.723, 132.455 20.656 C 130.942 21.763, 130.895 22, 132.186 22 C 134.628 22, 136.295 19.313, 135.593 16.513 C 134.749 13.152, 133.140 13.279, 133.785 16.656 M 93.500 16 C 93.160 16.550, 93.359 17, 93.941 17 C 94.523 17, 95 16.550, 95 16 C 95 15.450, 94.802 15, 94.559 15 C 94.316 15, 93.840 15.450, 93.500 16 M 139.038 20.925 C 136.595 25.714, 136.602 25.633, 138.552 26.382 C 139.469 26.734, 139.846 26.559, 139.473 25.956 C 139.125 25.394, 139.754 23.387, 140.870 21.495 C 141.986 19.604, 142.489 17.802, 141.988 17.493 C 141.487 17.183, 140.159 18.727, 139.038 20.925 M 57.500 19 C 57.840 19.550, 58.316 20, 58.559 20 C 58.802 20, 59 19.550, 59 19 C 59 18.450, 58.523 18, 57.941 18 C 57.359 18, 57.160 18.450, 57.500 19 M 51.217 22.152 C 51.505 23.016, 57.632 25.229, 61.750 25.956 C 62.502 26.089, 61.803 24.128, 60.498 22.441 C 59.255 20.836, 59.100 20.802, 59.602 22.242 C 60.168 23.870, 59.929 23.886, 55.978 22.492 C 50.896 20.699, 50.729 20.687, 51.217 22.152 M 89.553 22.915 C 89.231 23.436, 89.394 24.125, 89.915 24.447 C 90.436 24.769, 91.125 24.606, 91.447 24.085 C 91.769 23.564, 91.606 22.875, 91.085 22.553 C 90.564 22.231, 89.875 22.394, 89.553 22.915 M 94.500 23 C 94.160 23.550, 94.610 24, 95.500 24 C 96.390 24, 96.840 23.550, 96.500 23 C 96.160 22.450, 95.710 22, 95.500 22 C 95.290 22, 94.840 22.450, 94.500 23 M 99.500 23 C 99.160 23.550, 99.584 24, 100.441 24 C 101.298 24, 102 23.550, 102 23 C 102 22.450, 101.577 22, 101.059 22 C 100.541 22, 99.840 22.450, 99.500 23 M 104.500 23 C 104.160 23.550, 104.610 24, 105.500 24 C 106.390 24, 106.840 23.550, 106.500 23 C 106.160 22.450, 105.710 22, 105.500 22 C 105.290 22, 104.840 22.450, 104.500 23 M 147.570 25.500 C 146.533 27.425, 145.193 29.010, 144.593 29.022 C 143.296 29.049, 148.072 32.945, 149.441 32.978 C 149.959 32.990, 149.558 32.398, 148.551 31.661 C 147.156 30.641, 146.959 29.896, 147.722 28.533 C 148.394 27.331, 148.952 27.114, 149.421 27.872 C 149.804 28.492, 150.627 29, 151.250 29 C 151.873 29, 151.571 28.407, 150.580 27.682 C 148.946 26.487, 148.924 26.219, 150.341 24.801 C 151.757 23.386, 151.618 22, 150.061 22 C 149.727 22, 148.607 23.575, 147.570 25.500 M 85 24.559 C 85 25.416, 85.457 25.835, 86.016 25.490 C 86.575 25.144, 86.774 24.443, 86.457 23.931 C 85.600 22.544, 85 22.802, 85 24.559 M 109 24 C 109 24.550, 109.423 25, 109.941 25 C 110.459 25, 111.160 24.550, 111.500 24 C 111.840 23.450, 111.416 23, 110.559 23 C 109.702 23, 109 23.450, 109 24 M 114 24.500 C 114 25.417, 114.484 26.005, 115.075 25.808 C 115.666 25.611, 116.150 25.023, 116.150 24.500 C 116.150 23.977, 115.666 23.389, 115.075 23.192 C 114.484 22.995, 114 23.583, 114 24.500 M 80 25.559 C 80 26.416, 80.450 26.840, 81 26.500 C 81.550 26.160, 82 25.459, 82 24.941 C 82 24.423, 81.550 24, 81 24 C 80.450 24, 80 24.702, 80 25.559 M 119.583 24.866 C 119.152 25.563, 119.070 26.403, 119.400 26.733 C 120.295 27.628, 121.271 26.312, 120.787 24.862 C 120.449 23.846, 120.213 23.846, 119.583 24.866 M 75 27 C 75 27.550, 75.450 28, 76 28 C 76.550 28, 77 27.550, 77 27 C 77 26.450, 76.550 26, 76 26 C 75.450 26, 75 26.450, 75 27 M 90 26.932 C 61.701 31.058, 38.811 50.142, 29.348 77.500 C 26.850 84.722, 26.577 86.861, 26.541 99.500 C 26.506 111.469, 26.840 114.583, 28.844 120.965 C 35.238 141.328, 48.461 157.166, 66.500 166.069 C 73.577 169.561, 88.874 174.387, 89.872 173.442 C 90.776 172.585, 84.048 162.385, 81.893 161.345 C 80.577 160.711, 75.900 158.463, 71.500 156.351 C 65.475 153.458, 61.629 150.658, 55.921 145.005 C 47.237 136.405, 42.510 128.709, 39.332 118 C 38.108 113.875, 37.083 111.247, 37.054 112.161 C 36.950 115.378, 40.785 125.923, 44.428 132.437 C 51.080 144.332, 64.155 155.397, 77.165 160.140 C 80.374 161.311, 83 162.616, 83 163.040 C 83 163.465, 82.159 163.593, 81.132 163.324 C 80.104 163.056, 77.302 163.499, 74.904 164.309 L 70.544 165.783 74.679 167.022 C 77.735 167.938, 79.620 167.979, 81.907 167.182 C 83.764 166.535, 85 166.483, 85 167.052 C 85 167.573, 84.325 168, 83.500 168 C 82.675 168, 82 168.450, 82 169 C 82 169.550, 83.350 170, 85 170 C 86.650 170, 88 170.450, 88 171 C 88 172.579, 85.706 172.205, 76.568 169.134 C 64.958 165.233, 57.930 160.867, 48.986 152 C 33.219 136.370, 26.031 117.869, 27.273 96.118 C 28.267 78.720, 34.826 63.522, 46.834 50.793 C 60.619 36.180, 77.291 28.445, 97 27.517 C 117.069 26.572, 137.706 34.681, 151.909 49.092 C 176.952 74.502, 180.171 113.584, 159.597 142.417 C 154.170 150.021, 145.227 158.362, 137.669 162.865 C 131.205 166.718, 115.856 172.281, 112.978 171.814 C 111.092 171.508, 111.098 171.393, 113.202 167.268 C 114.817 164.102, 116.261 162.749, 118.931 161.895 C 120.894 161.268, 126.100 158.902, 130.500 156.637 C 147.705 147.780, 162.127 127.640, 163.373 110.729 C 163.585 107.853, 163.558 106.625, 163.314 108 C 160.536 123.653, 155.213 134.052, 144.618 144.523 C 136.396 152.649, 130.097 156.723, 120.687 160 C 116.167 161.574, 115.065 162.530, 112.118 167.437 C 110.257 170.534, 108.932 173.266, 109.173 173.507 C 109.414 173.747, 113.355 173.050, 117.932 171.957 C 144.322 165.654, 165.401 144.568, 172.204 117.665 C 173.871 111.073, 174.146 107.514, 173.756 97.577 C 172.937 76.683, 166.909 62.937, 152 47.963 C 142.399 38.321, 132.708 32.597, 119.973 29.048 C 111.500 26.686, 98.150 25.744, 90 26.932 M 124 27 C 124 27.550, 124.450 28, 125 28 C 125.550 28, 126 27.550, 126 27 C 126 26.450, 125.550 26, 125 26 C 124.450 26, 124 26.450, 124 27 M 70.553 27.915 C 70.231 28.436, 70.394 29.125, 70.915 29.447 C 71.436 29.769, 72.125 29.606, 72.447 29.085 C 72.769 28.564, 72.606 27.875, 72.085 27.553 C 71.564 27.231, 70.875 27.394, 70.553 27.915 M 55 29 C 55 29.550, 55.450 30, 56 30 C 56.550 30, 57 29.550, 57 29 C 57 28.450, 56.550 28, 56 28 C 55.450 28, 55 28.450, 55 29 M 128.510 29.016 C 128.856 29.575, 129.557 29.774, 130.069 29.457 C 131.456 28.600, 131.198 28, 129.441 28 C 128.584 28, 128.165 28.457, 128.510 29.016 M 66 30.500 C 66 31.325, 66.450 32, 67 32 C 67.550 32, 68 31.325, 68 30.500 C 68 29.675, 67.550 29, 67 29 C 66.450 29, 66 29.675, 66 30.500 M 91 29.770 C 89.003 30.415, 85 34.104, 85 35.299 C 85 37.015, 91.361 35.028, 94.019 32.482 C 97.106 29.524, 99.090 29.139, 96.500 32 C 94.719 33.968, 94.753 33.999, 98.595 33.964 C 101.185 33.940, 103.479 33.128, 105.407 31.551 L 108.315 29.174 100.407 29.230 C 96.058 29.261, 91.825 29.504, 91 29.770 M 82.099 31.554 C 78.586 33.079, 76.087 35.609, 76.032 37.698 C 75.979 39.698, 81.454 37.242, 84.387 33.950 C 88.320 29.536, 87.860 29.054, 82.099 31.554 M 107.720 31.588 C 106.192 32.417, 105.206 33.524, 105.529 34.047 C 106.479 35.584, 112.222 35.064, 115.888 33.111 L 119.277 31.305 116.013 30.653 C 111.600 29.770, 110.933 29.845, 107.720 31.588 M 133 31 C 133 31.550, 133.450 32, 134 32 C 134.550 32, 135 31.550, 135 31 C 135 30.450, 134.550 30, 134 30 C 133.450 30, 133 30.450, 133 31 M 38.724 32.322 C 37.278 35.998, 41.856 39.973, 45.139 37.893 C 46.149 37.253, 45.952 37.027, 44.372 37.015 C 41.967 36.998, 40.397 35.438, 39.828 32.500 C 39.466 30.632, 39.394 30.620, 38.724 32.322 M 45.741 31.610 C 45.431 32.111, 45.769 33.332, 46.493 34.321 C 47.216 35.310, 48.062 35.709, 48.372 35.207 C 48.682 34.705, 48.344 33.485, 47.621 32.496 C 46.897 31.506, 46.052 31.108, 45.741 31.610 M 61 33 C 61 33.550, 61.423 34, 61.941 34 C 62.459 34, 63.160 33.550, 63.500 33 C 63.840 32.450, 63.416 32, 62.559 32 C 61.702 32, 61 32.450, 61 33 M 137.500 33 C 137.160 33.550, 137.610 34, 138.500 34 C 139.390 34, 139.840 33.550, 139.500 33 C 139.160 32.450, 138.710 32, 138.500 32 C 138.290 32, 137.840 32.450, 137.500 33 M 159.494 33.009 C 159.152 33.564, 159.173 34.970, 159.542 36.134 C 159.960 37.449, 159.701 38.601, 158.857 39.179 C 157.846 39.871, 158.009 40.021, 159.500 39.768 C 161.049 39.505, 161.430 38.783, 161.188 36.562 C 161.015 34.973, 161.461 33.324, 162.188 32.863 C 163.186 32.230, 163.095 32.027, 161.809 32.015 C 160.879 32.007, 159.837 32.454, 159.494 33.009 M 72.595 34.527 C 69.140 36.329, 67.076 38.833, 67.032 41.276 C 67.003 42.911, 67.228 42.934, 69.880 41.562 C 72.527 40.193, 77.860 32.992, 76.216 33.006 C 75.822 33.010, 74.193 33.694, 72.595 34.527 M 116.504 34.373 C 114.695 35.696, 114.708 35.773, 116.871 36.459 C 118.106 36.851, 121.428 36.854, 124.253 36.465 C 128.932 35.822, 129.222 35.635, 127.504 34.379 C 125.080 32.607, 118.925 32.603, 116.504 34.373 M 57 34.941 C 57 35.459, 57.450 36.160, 58 36.500 C 58.550 36.840, 59 36.416, 59 35.559 C 59 34.702, 58.550 34, 58 34 C 57.450 34, 57 34.423, 57 34.941 M 142 36 C 142 36.550, 142.450 37, 143 37 C 143.550 37, 144 36.550, 144 36 C 144 35.450, 143.550 35, 143 35 C 142.450 35, 142 35.450, 142 36 M 33 36.394 C 33 36.826, 34.013 38.024, 35.250 39.056 L 37.500 40.933 33.309 40.967 C 31.004 40.985, 28.869 41.403, 28.565 41.895 C 27.689 43.312, 30.105 43.742, 35.314 43.097 L 40.129 42.500 36.564 39.054 C 34.604 37.158, 33 35.961, 33 36.394 M 96.250 36.728 C 98.313 36.944, 101.688 36.944, 103.750 36.728 C 105.813 36.513, 104.125 36.336, 100 36.336 C 95.875 36.336, 94.188 36.513, 96.250 36.728 M 155.543 36.931 C 155.226 37.443, 155.350 38.098, 155.817 38.387 C 156.284 38.676, 156.667 38.257, 156.667 37.456 C 156.667 35.770, 156.351 35.623, 155.543 36.931 M 53 38 C 53 38.550, 53.450 39, 54 39 C 54.550 39, 55 38.550, 55 38 C 55 37.450, 54.550 37, 54 37 C 53.450 37, 53 37.450, 53 38 M 63.743 38.799 C 61.042 40.438, 57.312 46.645, 58.383 47.717 C 59.534 48.867, 64.049 44.818, 65.508 41.327 C 66.343 39.328, 66.902 37.569, 66.750 37.417 C 66.599 37.265, 65.245 37.887, 63.743 38.799 M 80.972 38.877 C 61.763 45.025, 46.082 60.253, 39.231 79.411 C 37.143 85.249, 36.650 88.618, 36.440 98.500 L 36.185 110.500 36.979 98.500 C 37.416 91.900, 38.416 84.747, 39.201 82.604 L 40.629 78.708 51.183 96.876 L 61.736 115.044 62.414 109.938 C 63.982 98.120, 71.873 85.762, 80.898 80.992 L 84.500 79.088 62.750 79.044 C 47.580 79.013, 41 78.666, 41 77.896 C 41 74.579, 49.121 61.952, 55.043 56.062 C 64.807 46.350, 76.985 39.955, 90 37.705 C 92.208 37.323, 92.150 37.263, 89.500 37.190 C 87.850 37.145, 84.012 37.904, 80.972 38.877 M 113.538 38.473 C 125.929 41.171, 140.851 50.057, 148.210 59.121 C 156.323 69.113, 160.229 77.416, 162.503 89.500 C 163.242 93.430, 163.859 95.167, 163.910 93.460 C 164.054 88.606, 161.265 79.104, 157.333 71.053 C 152.489 61.134, 140.451 48.903, 130.500 43.790 C 122.793 39.829, 114.045 36.956, 110.068 37.079 C 108.656 37.123, 110.217 37.751, 113.538 38.473 M 125.115 37.908 C 121.878 39.958, 130.238 41.846, 135.873 40.337 L 138.246 39.702 135.873 38.387 C 133.154 36.879, 127.160 36.612, 125.115 37.908 M 146 39 C 146 39.550, 146.450 40, 147 40 C 147.550 40, 148 39.550, 148 39 C 148 38.450, 147.550 38, 147 38 C 146.450 38, 146 38.450, 146 39 M 163.408 41.500 C 161.891 43.816, 161.891 44.184, 163.408 46.500 C 164.309 47.875, 165.598 48.986, 166.273 48.970 C 166.948 48.953, 166.713 48.481, 165.750 47.920 C 163.481 46.598, 163.517 43.747, 165.829 41.655 C 168.279 39.438, 169.585 39.570, 171.443 42.223 C 172.299 43.445, 173 43.965, 173 43.377 C 173 41.634, 169.506 39, 167.194 39 C 166.006 39, 164.314 40.118, 163.408 41.500 M 49 41 C 49 41.550, 49.450 42, 50 42 C 50.550 42, 51 41.550, 51 41 C 51 40.450, 50.550 40, 50 40 C 49.450 40, 49 40.450, 49 41 M 150 42 C 150 42.550, 150.450 43, 151 43 C 151.550 43, 152 42.550, 152 42 C 152 41.450, 151.550 41, 151 41 C 150.450 41, 150 41.450, 150 42 M 134 42.965 C 134 44.637, 138.330 46.371, 142.935 46.542 L 147.370 46.707 144.435 44.358 C 141.465 41.982, 134 40.985, 134 42.965 M 45.553 43.915 C 45.231 44.436, 45.394 45.125, 45.915 45.447 C 46.436 45.769, 47.125 45.606, 47.447 45.085 C 47.769 44.564, 47.606 43.875, 47.085 43.553 C 46.564 43.231, 45.875 43.394, 45.553 43.915 M 53.901 46.106 C 50.348 49.909, 49.661 55.787, 52.977 54.012 C 55.323 52.757, 56.498 50.665, 57.334 46.250 C 58.100 42.210, 57.562 42.187, 53.901 46.106 M 153 45 C 153 45.550, 153.450 46, 154 46 C 154.550 46, 155 45.550, 155 45 C 155 44.450, 154.550 44, 154 44 C 153.450 44, 153 44.450, 153 45 M 34.100 46.705 C 34.829 47.917, 35.640 48.694, 35.903 48.431 C 36.166 48.168, 35.570 47.176, 34.579 46.226 C 32.857 44.577, 32.835 44.598, 34.100 46.705 M 24.638 47.501 C 24.319 48.332, 24.610 49, 25.292 49 C 25.967 49, 27.729 50.121, 29.207 51.491 C 31.094 53.241, 32.110 53.630, 32.624 52.800 C 33.025 52.150, 32.808 51.436, 32.140 51.213 C 31.472 50.991, 29.641 49.727, 28.070 48.405 C 25.719 46.427, 25.112 46.267, 24.638 47.501 M 42 48 C 42 48.550, 42.450 49, 43 49 C 43.550 49, 44 48.550, 44 48 C 44 47.450, 43.550 47, 43 47 C 42.450 47, 42 47.450, 42 48 M 156.553 47.915 C 156.231 48.436, 156.394 49.125, 156.915 49.447 C 157.436 49.769, 158.125 49.606, 158.447 49.085 C 158.769 48.564, 158.606 47.875, 158.085 47.553 C 157.564 47.231, 156.875 47.394, 156.553 47.915 M 175 47.714 C 175 48.171, 173.438 49.386, 171.529 50.415 C 169.620 51.443, 168.290 52.661, 168.575 53.122 C 168.860 53.582, 169.986 53.406, 171.077 52.730 C 172.699 51.724, 173.235 51.773, 174.015 53 C 175.408 55.190, 175.231 55.792, 172.985 56.505 C 171.877 56.856, 171.228 57.560, 171.543 58.069 C 171.857 58.578, 173.885 57.983, 176.049 56.747 C 180.275 54.334, 181.356 52.435, 177.875 53.540 C 176.542 53.963, 175.430 53.708, 174.890 52.857 C 173.627 50.863, 173.811 50, 175.500 50 C 177.198 50, 177.511 48.434, 176 47.500 C 175.450 47.160, 175 47.256, 175 47.714 M 142 48.977 C 142 50.544, 146.172 52.723, 150.500 53.416 L 154.500 54.057 151.234 51.029 C 148.056 48.081, 142 46.736, 142 48.977 M 47.135 52.357 C 44.646 55.005, 43.194 61.384, 44.846 62.405 C 46.396 63.363, 48.685 59.160, 49.288 54.250 C 49.575 51.913, 49.706 50, 49.579 50 C 49.452 50, 48.352 51.060, 47.135 52.357 M 39 52 C 39 52.550, 39.450 53, 40 53 C 40.550 53, 41 52.550, 41 52 C 41 51.450, 40.550 51, 40 51 C 39.450 51, 39 51.450, 39 52 M 90 52.393 C 90 54.089, 92.704 55.287, 93.527 53.956 C 93.852 53.430, 93.840 52.550, 93.500 52 C 92.576 50.505, 90 50.794, 90 52.393 M 160 52.500 C 160 53.325, 160.450 54, 161 54 C 161.550 54, 162 53.325, 162 52.500 C 162 51.675, 161.550 51, 161 51 C 160.450 51, 160 51.675, 160 52.500 M 21 53.326 C 21 53.978, 22.360 55.114, 24.022 55.850 C 25.684 56.585, 27.709 57.852, 28.522 58.665 C 29.826 59.969, 30 59.968, 30 58.657 C 30 57.840, 27.975 56.039, 25.500 54.656 C 22.778 53.135, 21 52.609, 21 53.326 M 67.314 53.908 C 67.040 54.957, 65.844 56.090, 64.658 56.425 L 62.500 57.035 64.730 58.912 C 66.626 60.507, 66.746 60.966, 65.530 61.975 C 64.743 62.628, 63.290 63.279, 62.300 63.421 C 59.787 63.782, 59.071 71, 61.548 71 C 62.807 71, 63.070 70.415, 62.618 68.614 C 62.250 67.147, 62.559 65.781, 63.421 65.066 C 65.155 63.627, 65.852 64.683, 65.458 68.154 C 65.239 70.088, 65.681 70.945, 67.092 71.314 C 69.300 71.891, 71.013 69.420, 71.332 65.196 C 71.479 63.247, 72.154 62.411, 73.768 62.180 C 76.250 61.825, 76.603 63.285, 75.032 67.416 C 74.329 69.265, 73.577 69.792, 72.282 69.342 C 70.870 68.851, 70.980 69.218, 72.808 71.111 C 74.982 73.362, 75.191 73.398, 76.433 71.729 C 77.158 70.755, 78.049 68.092, 78.414 65.812 C 79.212 60.821, 78.078 59.730, 72.750 60.364 C 68.497 60.869, 67.737 59.431, 71.500 58 C 74.519 56.852, 74.556 56.556, 72 54 C 69.488 51.488, 67.955 51.458, 67.314 53.908 M 132.639 53.694 C 132.288 54.046, 132 55.050, 132 55.926 C 132 58.124, 127.989 60.600, 127.005 59.008 C 125.981 57.352, 124.783 60.742, 125.545 63.141 C 125.933 64.363, 127.083 65, 128.903 65 C 131.459 65, 131.685 65.320, 131.835 69.166 C 132.066 75.043, 132.678 74.980, 133.501 68.993 C 133.949 65.739, 134.782 63.637, 135.777 63.255 C 136.641 62.924, 138.222 61.778, 139.292 60.708 C 140.874 59.126, 140.981 58.602, 139.868 57.897 C 139.116 57.421, 137.713 57.024, 136.750 57.015 C 135.787 57.007, 135 56.352, 135 55.559 C 135 53.888, 133.573 52.761, 132.639 53.694 M 36 56 C 36 56.550, 36.450 57, 37 57 C 37.550 57, 38 56.550, 38 56 C 38 55.450, 37.550 55, 37 55 C 36.450 55, 36 55.450, 36 56 M 91.269 56.438 C 88.392 57.135, 85.756 57.434, 85.411 57.102 C 85.066 56.771, 84.950 57.395, 85.153 58.489 C 85.622 61.008, 88.639 61.635, 90.824 59.666 C 91.746 58.835, 93.737 57.847, 95.250 57.470 C 96.763 57.092, 98 56.382, 98 55.892 C 98 54.823, 97.900 54.831, 91.269 56.438 M 150.213 57.195 C 151.793 59.573, 152.799 60.186, 157.736 61.774 C 160.710 62.731, 160.893 62.668, 159.992 60.985 C 158.430 58.067, 153.947 55, 151.243 55 C 148.906 55, 148.844 55.133, 150.213 57.195 M 163 56.559 C 163 57.416, 163.450 57.840, 164 57.500 C 164.550 57.160, 165 56.459, 165 55.941 C 165 55.423, 164.550 55, 164 55 C 163.450 55, 163 55.702, 163 56.559 M 18 59 C 18 59.550, 18.477 60, 19.059 60 C 19.641 60, 19.840 59.550, 19.500 59 C 19.160 58.450, 18.684 58, 18.441 58 C 18.198 58, 18 58.450, 18 59 M 40.370 61.784 C 39.218 64.157, 38.501 67.168, 38.762 68.534 C 39.881 74.389, 43.256 69.081, 42.779 62.216 L 42.451 57.500 40.370 61.784 M 134.500 59 C 134.160 59.550, 134.332 60, 134.882 60 C 135.432 60, 136.160 59.550, 136.500 59 C 136.840 58.450, 136.668 58, 136.118 58 C 135.568 58, 134.840 58.450, 134.500 59 M 33 60 C 33 60.550, 33.450 61, 34 61 C 34.550 61, 35 60.550, 35 60 C 35 59.450, 34.550 59, 34 59 C 33.450 59, 33 59.450, 33 60 M 165.553 59.915 C 165.231 60.436, 165.394 61.125, 165.915 61.447 C 166.436 61.769, 167.125 61.606, 167.447 61.085 C 167.769 60.564, 167.606 59.875, 167.085 59.553 C 166.564 59.231, 165.875 59.394, 165.553 59.915 M 91.797 61.430 C 90.336 62.188, 88.885 62.551, 88.571 62.237 C 88.257 61.923, 88 62.594, 88 63.726 C 88 64.859, 88.675 66.045, 89.500 66.362 C 91.308 67.055, 91.520 70.994, 89.750 71.015 C 88.917 71.026, 89 71.354, 90 72 C 92.495 73.612, 93 73.163, 93 69.329 C 93 67.297, 93.749 64.830, 94.676 63.805 C 97.046 61.187, 95.200 59.665, 91.797 61.430 M 110.500 60.744 C 103.438 61.175, 101.461 62.464, 105.505 64.002 C 107.485 64.755, 109.233 64.766, 111.317 64.039 C 112.957 63.468, 115.861 63, 117.772 63 C 120.746 63, 121.066 62.784, 120 61.500 C 119.315 60.675, 118.248 60.085, 117.628 60.189 C 117.007 60.293, 113.800 60.543, 110.500 60.744 M 129 61.500 C 128.306 62.337, 128.197 63, 128.755 63 C 129.305 63, 130.315 62.325, 131 61.500 C 131.694 60.663, 131.803 60, 131.245 60 C 130.695 60, 129.685 60.675, 129 61.500 M 176.200 61.200 C 175.540 61.860, 175 63.271, 175 64.335 C 175 66.002, 175.296 65.893, 177.143 63.546 C 178.678 61.594, 179.946 60.948, 181.613 61.266 C 182.892 61.511, 183.702 61.326, 183.411 60.856 C 182.623 59.581, 177.578 59.822, 176.200 61.200 M 22 62.134 C 21.175 62.611, 19.150 63.500, 17.500 64.111 C 14.778 65.117, 14.686 65.290, 16.500 65.974 C 17.600 66.388, 18.730 66.374, 19.010 65.943 C 19.291 65.511, 20.757 64.848, 22.269 64.469 C 23.782 64.089, 25.237 63.425, 25.504 62.994 C 26.249 61.788, 23.687 61.159, 22 62.134 M 90 63.500 C 89.306 64.337, 89.197 65, 89.755 65 C 90.305 65, 91.315 64.325, 92 63.500 C 92.694 62.663, 92.803 62, 92.245 62 C 91.695 62, 90.685 62.675, 90 63.500 M 30.500 64 C 30.160 64.550, 30.584 65, 31.441 65 C 32.298 65, 33 64.550, 33 64 C 33 63.450, 32.577 63, 32.059 63 C 31.541 63, 30.840 63.450, 30.500 64 M 156.444 65.892 C 157.266 67.482, 159.415 69.365, 161.220 70.077 C 163.024 70.788, 164.875 71.562, 165.333 71.796 C 165.791 72.030, 165.456 70.849, 164.589 69.172 C 162.782 65.678, 159.381 63, 156.752 63 C 155.085 63, 155.062 63.219, 156.444 65.892 M 184.116 64.081 C 183.963 66.166, 179.618 68.435, 177.317 67.630 C 175.573 67.021, 175.572 67.051, 177.296 68.392 C 180.487 70.872, 185.662 68.010, 184.699 64.298 C 184.339 62.914, 184.205 62.864, 184.116 64.081 M 168 65 C 168 65.550, 168.450 66, 169 66 C 169.550 66, 170 65.550, 170 65 C 170 64.450, 169.550 64, 169 64 C 168.450 64, 168 64.450, 168 65 M 35.098 70.149 C 33.730 74.072, 33.728 75.161, 35.080 78.685 L 36.160 81.500 37.670 78.638 C 38.732 76.628, 38.955 74.695, 38.422 72.138 C 38.005 70.137, 37.739 68.162, 37.832 67.750 C 37.924 67.338, 37.594 67, 37.098 67 C 36.602 67, 35.702 68.417, 35.098 70.149 M 96.229 68.188 C 96.847 70.042, 99 70.349, 99 68.583 C 99 67.713, 98.287 67, 97.417 67 C 96.546 67, 96.011 67.534, 96.229 68.188 M 22.500 69 C 22.840 69.550, 23.316 70, 23.559 70 C 23.802 70, 24 69.550, 24 69 C 24 68.450, 23.523 68, 22.941 68 C 22.359 68, 22.160 68.450, 22.500 69 M 28.510 69.016 C 28.856 69.575, 29.557 69.774, 30.069 69.457 C 31.456 68.600, 31.198 68, 29.441 68 C 28.584 68, 28.165 68.457, 28.510 69.016 M 170 68.941 C 170 69.459, 170.450 70.160, 171 70.500 C 171.550 70.840, 172 70.416, 172 69.559 C 172 68.702, 171.550 68, 171 68 C 170.450 68, 170 68.423, 170 68.941 M 85 71.559 C 85 72.416, 85.450 72.840, 86 72.500 C 86.550 72.160, 87 71.459, 87 70.941 C 87 70.423, 86.550 70, 86 70 C 85.450 70, 85 70.702, 85 71.559 M 160 72.655 C 160 74.433, 167.861 82.472, 168.741 81.593 C 169.717 80.617, 166.754 74.952, 164.230 72.966 C 161.178 70.566, 160 70.479, 160 72.655 M 26 73 C 26 73.550, 26.702 74, 27.559 74 C 28.416 74, 28.840 73.550, 28.500 73 C 28.160 72.450, 27.459 72, 26.941 72 C 26.423 72, 26 72.450, 26 73 M 180.655 73.829 C 179.745 74.835, 179 76.285, 179 77.051 C 179 77.888, 179.622 77.557, 180.557 76.223 C 182.217 73.851, 188 73.031, 188 75.167 C 188 75.808, 188.289 76.044, 188.643 75.691 C 189.746 74.588, 186.864 72, 184.533 72 C 183.310 72, 181.565 72.823, 180.655 73.829 M 13.605 73.813 C 12.451 74.050, 12.140 74.468, 12.809 74.882 C 14.352 75.835, 22 74.988, 22 73.864 C 22 72.987, 17.747 72.961, 13.605 73.813 M 172 74 C 172 74.550, 172.450 75, 173 75 C 173.550 75, 174 74.550, 174 74 C 174 73.450, 173.550 73, 173 73 C 172.450 73, 172 73.450, 172 74 M 17.750 78.841 C 18.712 79.854, 19.864 80.486, 20.310 80.245 C 20.755 80.005, 20.305 79.191, 19.310 78.436 C 16.682 76.443, 15.711 76.696, 17.750 78.841 M 25 78 C 25 78.550, 25.450 79, 26 79 C 26.550 79, 27 78.550, 27 78 C 27 77.450, 26.550 77, 26 77 C 25.450 77, 25 77.450, 25 78 M 31.406 80.652 C 30.207 87.042, 34.094 93.402, 35.443 87.258 C 35.995 84.744, 33.797 77, 32.532 77 C 32.289 77, 31.782 78.643, 31.406 80.652 M 173.553 77.915 C 173.231 78.436, 173.394 79.125, 173.915 79.447 C 174.436 79.769, 175.125 79.606, 175.447 79.085 C 175.769 78.564, 175.606 77.875, 175.085 77.553 C 174.564 77.231, 173.875 77.394, 173.553 77.915 M 187.020 78.476 C 186.082 79.606, 184.627 80.026, 182.653 79.736 C 179.959 79.340, 179.858 79.423, 181.537 80.651 C 182.552 81.393, 183.885 82, 184.500 82 C 186.416 82, 189.296 79.388, 188.851 78.053 C 188.539 77.118, 188.054 77.231, 187.020 78.476 M 120.054 81.832 C 129.531 87.869, 135.023 96.352, 137.284 108.446 L 138.500 114.949 148.500 97.759 C 154 88.304, 158.650 80.216, 158.833 79.784 C 159.017 79.353, 149.366 79, 137.388 79 L 115.608 79 120.054 81.832 M 87.302 82.045 C 80.220 84.846, 72.720 91.829, 69.309 98.798 C 66.882 103.754, 66.517 105.678, 66.517 113.500 C 66.517 121.301, 66.885 123.252, 69.280 128.143 C 74.114 138.013, 83.703 145.142, 94.403 146.820 C 105.954 148.631, 117.224 144.821, 124.879 136.515 C 131.582 129.244, 133.489 124.149, 133.495 113.500 C 133.499 105.684, 133.136 103.758, 130.730 98.858 C 127.634 92.555, 121.399 86.283, 114.849 82.886 C 108.527 79.606, 94.547 79.179, 87.302 82.045 M 23.553 81.915 C 23.231 82.436, 23.394 83.125, 23.915 83.447 C 24.436 83.769, 25.125 83.606, 25.447 83.085 C 25.769 82.564, 25.606 81.875, 25.085 81.553 C 24.564 81.231, 23.875 81.394, 23.553 81.915 M 164 83.313 C 164 84.585, 165.350 86.919, 167 88.500 C 170.298 91.660, 171.215 94.409, 168 91.500 C 166.035 89.722, 166 89.753, 166 93.329 C 166 96.020, 166.803 97.820, 169.079 100.234 L 172.159 103.500 171.516 99.500 C 171.163 97.300, 170.769 93.377, 170.641 90.782 C 170.474 87.408, 169.730 85.342, 168.030 83.532 C 165.078 80.390, 164 80.331, 164 83.313 M 10 83.059 C 10 83.641, 10.450 83.840, 11 83.500 C 11.550 83.160, 12 82.684, 12 82.441 C 12 82.198, 11.550 82, 11 82 C 10.450 82, 10 82.477, 10 83.059 M 46 82.446 C 46 83.564, 59.484 106.832, 59.897 106.428 C 60.451 105.886, 64.048 95.805, 64.296 94.100 C 64.408 93.330, 62.475 91.499, 60 90.032 C 48.377 83.142, 46 81.855, 46 82.446 M 144.802 87.400 C 140.017 90.205, 135.847 92.770, 135.534 93.101 C 135.221 93.432, 135.863 95.682, 136.960 98.101 C 138.058 100.520, 138.966 103.513, 138.978 104.750 C 138.990 105.987, 139.338 106.988, 139.750 106.972 C 140.597 106.941, 154.425 83.055, 153.862 82.596 C 153.663 82.433, 149.586 84.595, 144.802 87.400 M 175 83.559 C 175 84.416, 175.457 84.835, 176.016 84.490 C 176.575 84.144, 176.774 83.443, 176.457 82.931 C 175.600 81.544, 175 81.802, 175 83.559 M 16 83.901 C 16 84.397, 14.425 85.732, 12.500 86.867 C 8.685 89.118, 7.806 91.125, 11 90.290 C 12.100 90.002, 13 89.381, 13 88.909 C 13 88.437, 14.350 87.353, 16 86.500 C 19.193 84.849, 19.985 83, 17.500 83 C 16.675 83, 16 83.406, 16 83.901 M 92 84.682 C 87.809 86.145, 82 89.287, 82 90.089 C 82 90.605, 90.125 90.990, 100.750 90.978 L 119.500 90.956 117 89.007 C 113.066 85.940, 106.180 83.993, 99.572 84.079 C 96.232 84.122, 92.825 84.394, 92 84.682 M 185.656 85.346 C 179.790 86.744, 180.180 87.659, 186.429 87.162 C 189.506 86.917, 191 86.341, 191 85.399 C 191 84.630, 190.887 84.043, 190.750 84.096 C 190.613 84.149, 188.320 84.711, 185.656 85.346 M 22.553 86.915 C 22.231 87.436, 22.394 88.125, 22.915 88.447 C 23.436 88.769, 24.125 88.606, 24.447 88.085 C 24.769 87.564, 24.606 86.875, 24.085 86.553 C 23.564 86.231, 22.875 86.394, 22.553 86.915 M 29.640 87.693 C 28.573 88.760, 28.951 94.346, 30.265 96.921 C 32.150 100.616, 34 100.695, 34 97.080 C 34 93.755, 30.695 86.639, 29.640 87.693 M 175.553 87.915 C 175.231 88.436, 175.394 89.125, 175.915 89.447 C 176.436 89.769, 177.125 89.606, 177.447 89.085 C 177.769 88.564, 177.606 87.875, 177.085 87.553 C 176.564 87.231, 175.875 87.394, 175.553 87.915 M 16.813 90.683 C 17.534 90.972, 18.397 90.936, 18.729 90.604 C 19.061 90.272, 18.471 90.036, 17.417 90.079 C 16.252 90.127, 16.015 90.364, 16.813 90.683 M 22 92.500 C 22 93.325, 22.450 94, 23 94 C 23.550 94, 24 93.325, 24 92.500 C 24 91.675, 23.550 91, 23 91 C 22.450 91, 22 91.675, 22 92.500 M 176 93 C 176 93.550, 176.450 94, 177 94 C 177.550 94, 178 93.550, 178 93 C 178 92.450, 177.550 92, 177 92 C 176.450 92, 176 92.450, 176 93 M 73.319 100.217 C 69.531 107.495, 69.365 118.222, 72.921 125.824 C 74.252 128.671, 75.657 131, 76.042 131 C 76.428 131, 77.071 125.512, 77.471 118.804 C 78.515 101.318, 78.045 102, 89.039 102 L 98.127 102 97.813 98.750 L 97.500 95.500 86.784 95.217 L 76.068 94.933 73.319 100.217 M 102.698 95.635 C 102.314 96.019, 102 97.608, 102 99.167 L 102 102 110.965 102 C 118.483 102, 120.079 102.282, 120.857 103.750 C 121.368 104.713, 122.109 110.730, 122.504 117.122 C 122.900 123.514, 123.563 129.293, 123.978 129.964 C 124.466 130.753, 125.575 129.473, 127.116 126.342 C 130.602 119.262, 130.523 107.435, 126.943 100.473 L 124.386 95.500 113.891 95.218 C 108.119 95.063, 103.083 95.251, 102.698 95.635 M 21.553 96.915 C 21.231 97.436, 21.394 98.125, 21.915 98.447 C 22.436 98.769, 23.125 98.606, 23.447 98.085 C 23.769 97.564, 23.606 96.875, 23.085 96.553 C 22.564 96.231, 21.875 96.394, 21.553 96.915 M 176.500 98 C 176.160 98.550, 176.584 99, 177.441 99 C 178.298 99, 179 98.550, 179 98 C 179 97.450, 178.577 97, 178.059 97 C 177.541 97, 176.840 97.450, 176.500 98 M 28.594 101.671 C 29.210 105.548, 31.627 110, 33.115 110 C 35.014 110, 33.879 103.434, 31.516 100.750 C 28.336 97.137, 27.896 97.276, 28.594 101.671 M 166.667 100.667 C 164.774 102.560, 167.801 112.973, 170.250 112.994 C 171.586 113.005, 171.044 105.985, 169.474 102.950 C 167.833 99.777, 167.681 99.653, 166.667 100.667 M 21.553 101.915 C 21.231 102.436, 21.394 103.125, 21.915 103.447 C 22.436 103.769, 23.125 103.606, 23.447 103.085 C 23.769 102.564, 23.606 101.875, 23.085 101.553 C 22.564 101.231, 21.875 101.394, 21.553 101.915 M 176.500 103 C 176.160 103.550, 176.584 104, 177.441 104 C 178.298 104, 179 103.550, 179 103 C 179 102.450, 178.577 102, 178.059 102 C 177.541 102, 176.840 102.450, 176.500 103 M 22 107 C 22 107.550, 22.450 108, 23 108 C 23.550 108, 24 107.550, 24 107 C 24 106.450, 23.550 106, 23 106 C 22.450 106, 22 106.450, 22 107 M 83.226 107.250 C 82.665 107.938, 81.881 113.787, 81.483 120.250 L 80.760 132 89.380 132 L 98 132 98 119 L 98 106 91.122 106 C 86.831 106, 83.862 106.470, 83.226 107.250 M 102 119 L 102 132 110.636 132 L 119.272 132 118.556 120.373 C 118.162 113.978, 117.603 108.128, 117.313 107.373 C 116.932 106.380, 114.739 106, 109.393 106 L 102 106 102 119 M 176 108 C 176 108.550, 176.450 109, 177 109 C 177.550 109, 178 108.550, 178 108 C 178 107.450, 177.550 107, 177 107 C 176.450 107, 176 107.450, 176 108 M 29 109.757 C 29 113.019, 31.029 116.789, 33.741 118.566 C 35.079 119.443, 36.320 120.011, 36.498 119.830 C 37.594 118.717, 35.296 113.710, 32.403 110.906 C 29.278 107.877, 29 107.783, 29 109.757 M 165.651 110.682 C 164.538 111.796, 164.935 117.616, 166.355 120.993 C 167.669 124.119, 167.729 124.145, 168.341 121.858 C 169.356 118.067, 169.039 113.635, 167.619 111.766 C 166.895 110.812, 166.009 110.324, 165.651 110.682 M 22 112 C 22 112.550, 22.702 113, 23.559 113 C 24.416 113, 24.840 112.550, 24.500 112 C 24.160 111.450, 23.459 111, 22.941 111 C 22.423 111, 22 111.450, 22 112 M 0.070 155.750 L 0 200 44.750 199.850 C 69.362 199.768, 88.150 199.514, 86.500 199.286 C 73.049 197.427, 57.069 191.404, 45.585 183.865 C 22.698 168.839, 7.647 146.812, 1.948 120 L 0.141 111.500 0.070 155.750 M 175 113 C 175 113.550, 175.675 114, 176.500 114 C 177.325 114, 178 113.550, 178 113 C 178 112.450, 177.325 112, 176.500 112 C 175.675 112, 175 112.450, 175 113 M 199 115.312 C 199 120.035, 194.727 133.791, 190.440 142.867 C 176.799 171.749, 150.445 192.074, 118.375 198.446 C 112.122 199.688, 115.504 199.821, 155.750 199.906 L 200 200 200 156.500 C 200 132.575, 199.775 113, 199.500 113 C 199.225 113, 199 114.040, 199 115.312 M 23 117 C 23 117.550, 23.423 118, 23.941 118 C 24.459 118, 25.160 117.550, 25.500 117 C 25.840 116.450, 25.416 116, 24.559 116 C 23.702 116, 23 116.450, 23 117 M 174.500 118 C 174.840 118.550, 175.541 119, 176.059 119 C 176.577 119, 177 118.550, 177 118 C 177 117.450, 176.298 117, 175.441 117 C 174.584 117, 174.160 117.450, 174.500 118 M 31.421 120.585 C 32.230 123.851, 36.675 129, 38.687 129 C 41.799 129, 39.454 124.346, 34.398 120.490 L 30.700 117.670 31.421 120.585 M 162.150 123 C 161.375 125.224, 161.450 126.968, 162.442 129.750 L 163.779 133.500 164.890 130.685 C 166.137 127.523, 166.250 125.535, 165.370 122.250 C 164.542 119.163, 163.394 119.431, 162.150 123 M 25 122 C 25 122.550, 25.450 123, 26 123 C 26.550 123, 27 122.550, 27 122 C 27 121.450, 26.550 121, 26 121 C 25.450 121, 25 121.450, 25 122 M 173 123 C 173 123.550, 173.450 124, 174 124 C 174.550 124, 175 123.550, 175 123 C 175 122.450, 174.550 122, 174 122 C 173.450 122, 173 122.450, 173 123 M 26 127 C 26 127.550, 26.450 128, 27 128 C 27.550 128, 28 127.550, 28 127 C 28 126.450, 27.550 126, 27 126 C 26.450 126, 26 126.450, 26 127 M 172 127.559 C 172 128.416, 172.457 128.835, 173.016 128.490 C 173.575 128.144, 173.774 127.443, 173.457 126.931 C 172.600 125.544, 172 125.802, 172 127.559 M 35.508 131.016 C 37.150 134.190, 41.583 138, 43.635 138 C 47.049 138, 43.193 132.623, 37.967 130.098 L 34.057 128.209 35.508 131.016 M 158.628 131.164 C 157.424 133.001, 156.979 135.326, 157.192 138.663 L 157.500 143.500 159.776 139.239 C 161.572 135.877, 161.875 134.295, 161.212 131.740 L 160.373 128.501 158.628 131.164 M 28 131 C 28 131.550, 28.450 132, 29 132 C 29.550 132, 30 131.550, 30 131 C 30 130.450, 29.550 130, 29 130 C 28.450 130, 28 130.450, 28 131 M 170 132 C 170 132.550, 170.450 133, 171 133 C 171.550 133, 172 132.550, 172 132 C 172 131.450, 171.550 131, 171 131 C 170.450 131, 170 131.450, 170 132 M 30 136 C 30 136.550, 30.450 137, 31 137 C 31.550 137, 32 136.550, 32 136 C 32 135.450, 31.550 135, 31 135 C 30.450 135, 30 135.450, 30 136 M 167.500 136 C 167.160 136.550, 167.610 137, 168.500 137 C 169.390 137, 169.840 136.550, 169.500 136 C 169.160 135.450, 168.710 135, 168.500 135 C 168.290 135, 167.840 135.450, 167.500 136 M 83 137.993 C 85.739 140.129, 93.297 143, 96.178 143 C 97.594 143, 98 142.219, 98 139.500 L 98 136 89.250 136.022 L 80.500 136.044 83 137.993 M 102 139.628 L 102 143.256 106.250 142.576 C 110.016 141.974, 119 137.663, 119 136.458 C 119 136.206, 115.175 136, 110.500 136 L 102 136 102 139.628 M 40 138.605 C 40 138.861, 40.712 140.157, 41.582 141.485 C 43.077 143.767, 49.554 146.780, 50.636 145.697 C 51.384 144.949, 48.772 141.132, 47.022 140.415 C 44.018 139.184, 40 138.149, 40 138.605 M 152.640 140.250 C 151.866 141.488, 150.990 144.481, 150.691 146.903 L 150.149 151.305 152.649 148.805 C 154.182 147.272, 155.365 144.699, 155.706 142.153 C 156.333 137.479, 154.920 136.602, 152.640 140.250 M 32.500 140 C 32.840 140.550, 33.541 141, 34.059 141 C 34.577 141, 35 140.550, 35 140 C 35 139.450, 34.298 139, 33.441 139 C 32.584 139, 32.160 139.450, 32.500 140 M 165 141 C 165 141.550, 165.450 142, 166 142 C 166.550 142, 167 141.550, 167 141 C 167 140.450, 166.550 140, 166 140 C 165.450 140, 165 140.450, 165 141 M 35 144 C 35 144.550, 35.450 145, 36 145 C 36.550 145, 37 144.550, 37 144 C 37 143.450, 36.550 143, 36 143 C 35.450 143, 35 143.450, 35 144 M 162.510 145.016 C 162.856 145.575, 163.557 145.774, 164.069 145.457 C 165.456 144.600, 165.198 144, 163.441 144 C 162.584 144, 162.165 144.457, 162.510 145.016 M 115 147.833 C 110.223 150.149, 108.251 150.500, 100 150.499 C 92.248 150.499, 89.598 150.083, 85.595 148.237 C 82.898 146.993, 80.527 146.140, 80.327 146.340 C 80.019 146.647, 94.041 171.463, 98.695 178.848 C 100.137 181.137, 100.411 180.788, 109.668 164.848 C 120.347 146.459, 121.186 144.966, 120.785 145.083 C 120.628 145.129, 118.025 146.367, 115 147.833 M 146.390 147.156 C 145.230 148.445, 143.818 151.401, 143.253 153.725 C 142.287 157.696, 142.338 157.889, 144.102 156.945 C 146.660 155.576, 149.188 150.419, 148.810 147.340 L 148.500 144.812 146.390 147.156 M 46.286 147.377 C 46.900 149.251, 53.142 153, 55.648 153 C 58.518 153, 58.639 151.889, 56.029 149.526 C 53.681 147.402, 45.718 145.645, 46.286 147.377 M 38 148 C 38 148.550, 38.450 149, 39 149 C 39.550 149, 40 148.550, 40 148 C 40 147.450, 39.550 147, 39 147 C 38.450 147, 38 147.450, 38 148 M 159 149 C 159 149.550, 159.423 150, 159.941 150 C 160.459 150, 161.160 149.550, 161.500 149 C 161.840 148.450, 161.416 148, 160.559 148 C 159.702 148, 159 148.450, 159 149 M 41 152 C 41 152.550, 41.675 153, 42.500 153 C 43.325 153, 44 152.550, 44 152 C 44 151.450, 43.325 151, 42.500 151 C 41.675 151, 41 151.450, 41 152 M 110.500 152 C 109.400 152.473, 106.588 152.891, 104.250 152.930 L 100 153 100.003 164.750 L 100.005 176.500 103.318 171 C 108.252 162.807, 114 152.398, 114 151.654 C 114 150.821, 113.017 150.919, 110.500 152 M 156.583 151.866 C 156.152 152.563, 156.070 153.403, 156.400 153.733 C 157.295 154.628, 158.271 153.312, 157.787 151.862 C 157.449 150.846, 157.213 150.846, 156.583 151.866 M 138.327 154.386 C 135.327 156.917, 132.404 163, 134.187 163 C 136.053 163, 142 156.225, 142 154.100 C 142 151.457, 141.777 151.474, 138.327 154.386 M 45 155.441 C 45 156.298, 45.450 157, 46 157 C 46.550 157, 47 156.577, 47 156.059 C 47 155.541, 46.550 154.840, 46 154.500 C 45.450 154.160, 45 154.584, 45 155.441 M 55.482 155.980 C 57.479 158.187, 63.045 159.580, 65.736 158.548 C 68.844 157.355, 63.260 154.048, 58.095 154.022 C 53.767 154, 53.722 154.035, 55.482 155.980 M 153 156 C 153 156.550, 153.450 157, 154 157 C 154.550 157, 155 156.550, 155 156 C 155 155.450, 154.550 155, 154 155 C 153.450 155, 153 155.450, 153 156 M 48.500 159 C 48.840 159.550, 49.541 160, 50.059 160 C 50.577 160, 51 159.550, 51 159 C 51 158.450, 50.298 158, 49.441 158 C 48.584 158, 48.160 158.450, 48.500 159 M 129.334 159.479 C 128.173 160.292, 126.309 162.506, 125.192 164.398 L 123.162 167.839 125.959 166.865 C 128.969 165.815, 132.323 162.573, 133.320 159.750 C 134.084 157.583, 132.221 157.456, 129.334 159.479 M 149 159 C 149 159.550, 149.450 160, 150 160 C 150.550 160, 151 159.550, 151 159 C 151 158.450, 150.550 158, 150 158 C 149.450 158, 149 158.450, 149 159 M 64.500 159.906 L 61.500 160.645 65.139 162.455 C 69.643 164.695, 77.331 163.902, 74.879 161.450 C 73.088 159.659, 68.358 158.955, 64.500 159.906 M 52 162 C 52 162.550, 52.702 163, 53.559 163 C 54.416 163, 54.840 162.550, 54.500 162 C 54.160 161.450, 53.459 161, 52.941 161 C 52.423 161, 52 161.450, 52 162 M 145 162 C 145 162.550, 145.450 163, 146 163 C 146.550 163, 147 162.550, 147 162 C 147 161.450, 146.550 161, 146 161 C 145.450 161, 145 161.450, 145 162 M 116.711 165.975 C 112.592 169.863, 112.557 169.951, 115.115 169.975 C 117.956 170.002, 122.401 166.988, 124.042 163.922 C 125.937 160.381, 121.246 161.695, 116.711 165.975 M 56.510 165.016 C 56.856 165.575, 57.557 165.774, 58.069 165.457 C 59.456 164.600, 59.198 164, 57.441 164 C 56.584 164, 56.165 164.457, 56.510 165.016 M 141 165 C 141 165.550, 141.450 166, 142 166 C 142.550 166, 143 165.550, 143 165 C 143 164.450, 142.550 164, 142 164 C 141.450 164, 141 164.450, 141 165 M 60.500 167 C 60.160 167.550, 60.610 168, 61.500 168 C 62.390 168, 62.840 167.550, 62.500 167 C 62.160 166.450, 61.710 166, 61.500 166 C 61.290 166, 60.840 166.450, 60.500 167 M 137 168 C 137 168.550, 137.450 169, 138 169 C 138.550 169, 139 168.550, 139 168 C 139 167.450, 138.550 167, 138 167 C 137.450 167, 137 167.450, 137 168 M 65 170 C 65 170.550, 65.450 171, 66 171 C 66.550 171, 67 170.550, 67 170 C 67 169.450, 66.550 169, 66 169 C 65.450 169, 65 169.450, 65 170 M 132 170 C 132 170.550, 132.450 171, 133 171 C 133.550 171, 134 170.550, 134 170 C 134 169.450, 133.550 169, 133 169 C 132.450 169, 132 169.450, 132 170 M 70 172 C 70 172.550, 70.450 173, 71 173 C 71.550 173, 72 172.550, 72 172 C 72 171.450, 71.550 171, 71 171 C 70.450 171, 70 171.450, 70 172 M 128 172 C 128 172.550, 128.450 173, 129 173 C 129.550 173, 130 172.550, 130 172 C 130 171.450, 129.550 171, 129 171 C 128.450 171, 128 171.450, 128 172 M 74.553 172.915 C 74.231 173.436, 74.394 174.125, 74.915 174.447 C 75.436 174.769, 76.125 174.606, 76.447 174.085 C 76.769 173.564, 76.606 172.875, 76.085 172.553 C 75.564 172.231, 74.875 172.394, 74.553 172.915 M 123 174 C 123 174.550, 123.450 175, 124 175 C 124.550 175, 125 174.550, 125 174 C 125 173.450, 124.550 173, 124 173 C 123.450 173, 123 173.450, 123 174 M 79 175 C 79 175.550, 79.450 176, 80 176 C 80.550 176, 81 175.550, 81 175 C 81 174.450, 80.550 174, 80 174 C 79.450 174, 79 174.450, 79 175 M 118 175 C 118 175.550, 118.450 176, 119 176 C 119.550 176, 120 175.550, 120 175 C 120 174.450, 119.550 174, 119 174 C 118.450 174, 118 174.450, 118 175 M 141 174.466 C 141 175.761, 144.483 182, 145.206 182 C 145.665 182, 145.122 180.200, 144 178 C 142.198 174.467, 141 173.056, 141 174.466 M 57.451 178.461 C 54.841 183.308, 56.036 183.728, 58.796 178.933 C 60.041 176.770, 60.667 175, 60.187 175 C 59.708 175, 58.476 176.557, 57.451 178.461 M 84 176 C 84 176.550, 84.450 177, 85 177 C 85.550 177, 86 176.550, 86 176 C 86 175.450, 85.550 175, 85 175 C 84.450 175, 84 175.450, 84 176 M 113.500 176 C 113.160 176.550, 113.610 177, 114.500 177 C 115.390 177, 115.840 176.550, 115.500 176 C 115.160 175.450, 114.710 175, 114.500 175 C 114.290 175, 113.840 175.450, 113.500 176 M 89 177 C 89 177.550, 89.450 178, 90 178 C 90.550 178, 91 177.550, 91 177 C 91 176.450, 90.550 176, 90 176 C 89.450 176, 89 176.450, 89 177 M 109 177 C 109 177.550, 109.450 178, 110 178 C 110.550 178, 111 177.550, 111 177 C 111 176.450, 110.550 176, 110 176 C 109.450 176, 109 176.450, 109 177 M 67.345 180.543 C 67.019 181.392, 66.976 182.310, 67.249 182.583 C 67.523 182.856, 67.986 182.161, 68.279 181.040 C 68.903 178.657, 68.210 178.289, 67.345 180.543 M 71 181.612 C 71 182.564, 70.213 184.231, 69.250 185.317 C 67.558 187.225, 67.571 187.254, 69.625 186.177 C 71.929 184.969, 73.370 181.347, 71.906 180.442 C 71.408 180.134, 71 180.661, 71 181.612 M 123.076 182.050 C 123.118 182.847, 123.795 185.075, 124.581 187 L 126.009 190.500 125.427 186.500 C 124.867 182.655, 122.914 178.957, 123.076 182.050 M 77.868 185.391 C 77.135 186.998, 77.103 188.362, 77.769 189.551 C 78.572 190.987, 78.834 190.535, 79.156 187.161 C 79.612 182.375, 79.385 182.062, 77.868 185.391 M 82.396 184.823 C 82.379 185.746, 82.034 187.625, 81.630 189 C 80.926 191.399, 80.959 191.421, 82.448 189.559 C 84.108 187.482, 84.503 184.429, 83.214 183.632 C 82.782 183.365, 82.414 183.901, 82.396 184.823 M 90 184.387 C 90 184.599, 91.350 184.971, 93 185.213 C 94.650 185.455, 96 185.282, 96 184.827 C 96 184.372, 94.650 184, 93 184 C 91.350 184, 90 184.174, 90 184.387 M 111.704 187.750 C 112.317 191.719, 112.706 192.627, 113.469 191.864 C 114.216 191.118, 112.824 184, 111.932 184 C 111.489 184, 111.386 185.688, 111.704 187.750 M 92.143 190.143 C 91.438 191.271, 91.081 192.414, 91.350 192.683 C 91.618 192.952, 92.361 192.194, 93 191 C 94.511 188.176, 93.809 187.474, 92.143 190.143" stroke="none" fill="#e7e0c5" fill-rule="evenodd"/><path d="M 86 1.522 C 59.524 5.191, 34.173 20.608, 18.376 42.648 C 12.260 51.181, 5.480 65.934, 2.789 76.560 C -0.369 89.032, -0.380 112.753, 2.766 124.175 C 7.950 142.998, 16.311 157.571, 29.384 170.570 C 47.729 188.812, 69.273 198.342, 95.202 199.684 C 123.379 201.143, 148.271 191.915, 169.058 172.307 C 182.744 159.395, 192.879 142.060, 197.009 124.496 C 198.173 119.548, 199.547 114.118, 200.062 112.429 C 201.266 108.485, 201.284 89.513, 200.086 87.236 C 199.584 86.281, 198.630 82.800, 197.967 79.500 C 189.610 37.887, 153.912 6.028, 110 0.991 C 99.713 -0.189, 98.089 -0.153, 86 1.522 M 101.715 7.750 C 101.057 8.973, 102.144 17, 102.967 17 C 103.384 17, 103.674 14.750, 103.612 12 C 103.510 7.454, 102.768 5.791, 101.715 7.750 M 94.244 8.750 C 94.470 9.162, 95.281 10.962, 96.047 12.750 C 97.573 16.314, 98.482 16.794, 99.362 14.500 C 99.678 13.675, 99.490 13, 98.944 13 C 98.398 13, 97.523 11.875, 97 10.500 C 96.477 9.125, 95.551 8, 94.941 8 C 94.332 8, 94.018 8.338, 94.244 8.750 M 108.500 12.417 C 108.500 14.844, 108.838 17.168, 109.250 17.582 C 109.662 17.995, 110.006 17.021, 110.014 15.417 C 110.021 13.813, 110.299 11.488, 110.630 10.250 C 111.040 8.720, 110.796 8.001, 109.867 8.002 C 108.918 8.003, 108.500 9.353, 108.500 12.417 M 115.307 13.500 C 114.550 16.810, 114.580 18, 115.421 18 C 116.049 18, 116.659 16.851, 116.775 15.447 C 116.891 14.043, 117.455 12.018, 118.028 10.947 C 118.825 9.459, 118.748 9, 117.704 9 C 116.903 9, 115.910 10.864, 115.307 13.500 M 81.733 14.250 C 82.317 18.830, 82.666 19.667, 83.599 18.734 C 84.441 17.893, 83.002 10, 82.007 10 C 81.558 10, 81.434 11.912, 81.733 14.250 M 121.760 12.526 C 122.065 14.123, 121.584 15.802, 120.468 17.035 C 118.366 19.358, 120.142 19.715, 122.429 17.429 C 124.362 15.495, 124.457 12.624, 122.637 11.114 C 121.533 10.197, 121.366 10.465, 121.760 12.526 M 127.446 16.435 C 125.494 20.649, 125.482 20.893, 127.197 21.341 C 128.190 21.601, 128.763 21.425, 128.470 20.951 C 128.176 20.476, 128.626 18.438, 129.468 16.422 C 131.227 12.212, 131.265 12, 130.250 12.001 C 129.838 12.001, 128.576 13.997, 127.446 16.435 M 68.087 14.282 C 70.881 16.427, 71.947 19.341, 70.738 21.526 C 69.759 23.296, 69.819 23.358, 71.323 22.128 C 73.681 20.198, 73.408 16.399, 70.777 14.557 C 68.176 12.735, 65.749 12.487, 68.087 14.282 M 64.011 15.487 C 62.356 17.481, 63.511 21.668, 66.097 23.052 C 69.041 24.627, 69.835 23.273, 67.094 21.353 C 65.380 20.153, 64.915 19.035, 65.231 16.876 C 65.719 13.555, 65.665 13.494, 64.011 15.487 M 133.785 16.656 C 134.138 18.502, 133.732 19.723, 132.455 20.656 C 130.942 21.763, 130.895 22, 132.186 22 C 134.628 22, 136.295 19.313, 135.593 16.513 C 134.749 13.152, 133.140 13.279, 133.785 16.656 M 93.500 16 C 93.160 16.550, 93.359 17, 93.941 17 C 94.523 17, 95 16.550, 95 16 C 95 15.450, 94.802 15, 94.559 15 C 94.316 15, 93.840 15.450, 93.500 16 M 139.038 20.925 C 136.595 25.714, 136.602 25.633, 138.552 26.382 C 139.469 26.734, 139.846 26.559, 139.473 25.956 C 139.125 25.394, 139.754 23.387, 140.870 21.495 C 141.986 19.604, 142.489 17.802, 141.988 17.493 C 141.487 17.183, 140.159 18.727, 139.038 20.925 M 57.500 19 C 57.840 19.550, 58.316 20, 58.559 20 C 58.802 20, 59 19.550, 59 19 C 59 18.450, 58.523 18, 57.941 18 C 57.359 18, 57.160 18.450, 57.500 19 M 51.217 22.152 C 51.505 23.016, 57.632 25.229, 61.750 25.956 C 62.502 26.089, 61.803 24.128, 60.498 22.441 C 59.255 20.836, 59.100 20.802, 59.602 22.242 C 60.168 23.870, 59.929 23.886, 55.978 22.492 C 50.896 20.699, 50.729 20.687, 51.217 22.152 M 89.553 22.915 C 89.231 23.436, 89.394 24.125, 89.915 24.447 C 90.436 24.769, 91.125 24.606, 91.447 24.085 C 91.769 23.564, 91.606 22.875, 91.085 22.553 C 90.564 22.231, 89.875 22.394, 89.553 22.915 M 94.500 23 C 94.160 23.550, 94.610 24, 95.500 24 C 96.390 24, 96.840 23.550, 96.500 23 C 96.160 22.450, 95.710 22, 95.500 22 C 95.290 22, 94.840 22.450, 94.500 23 M 99.500 23 C 99.160 23.550, 99.584 24, 100.441 24 C 101.298 24, 102 23.550, 102 23 C 102 22.450, 101.577 22, 101.059 22 C 100.541 22, 99.840 22.450, 99.500 23 M 104.500 23 C 104.160 23.550, 104.610 24, 105.500 24 C 106.390 24, 106.840 23.550, 106.500 23 C 106.160 22.450, 105.710 22, 105.500 22 C 105.290 22, 104.840 22.450, 104.500 23 M 147.570 25.500 C 146.533 27.425, 145.193 29.010, 144.593 29.022 C 143.296 29.049, 148.072 32.945, 149.441 32.978 C 149.959 32.990, 149.558 32.398, 148.551 31.661 C 147.156 30.641, 146.959 29.896, 147.722 28.533 C 148.394 27.331, 148.952 27.114, 149.421 27.872 C 149.804 28.492, 150.627 29, 151.250 29 C 151.873 29, 151.571 28.407, 150.580 27.682 C 148.946 26.487, 148.924 26.219, 150.341 24.801 C 151.757 23.386, 151.618 22, 150.061 22 C 149.727 22, 148.607 23.575, 147.570 25.500 M 85 24.559 C 85 25.416, 85.457 25.835, 86.016 25.490 C 86.575 25.144, 86.774 24.443, 86.457 23.931 C 85.600 22.544, 85 22.802, 85 24.559 M 109 24 C 109 24.550, 109.423 25, 109.941 25 C 110.459 25, 111.160 24.550, 111.500 24 C 111.840 23.450, 111.416 23, 110.559 23 C 109.702 23, 109 23.450, 109 24 M 114 24.500 C 114 25.417, 114.484 26.005, 115.075 25.808 C 115.666 25.611, 116.150 25.023, 116.150 24.500 C 116.150 23.977, 115.666 23.389, 115.075 23.192 C 114.484 22.995, 114 23.583, 114 24.500 M 80 25.559 C 80 26.416, 80.450 26.840, 81 26.500 C 81.550 26.160, 82 25.459, 82 24.941 C 82 24.423, 81.550 24, 81 24 C 80.450 24, 80 24.702, 80 25.559 M 119.583 24.866 C 119.152 25.563, 119.070 26.403, 119.400 26.733 C 120.295 27.628, 121.271 26.312, 120.787 24.862 C 120.449 23.846, 120.213 23.846, 119.583 24.866 M 75 27 C 75 27.550, 75.450 28, 76 28 C 76.550 28, 77 27.550, 77 27 C 77 26.450, 76.550 26, 76 26 C 75.450 26, 75 26.450, 75 27 M 90 26.932 C 61.701 31.058, 38.811 50.142, 29.348 77.500 C 26.850 84.722, 26.577 86.861, 26.541 99.500 C 26.506 111.469, 26.840 114.583, 28.844 120.965 C 35.238 141.328, 48.461 157.166, 66.500 166.069 C 73.577 169.561, 88.874 174.387, 89.872 173.442 C 90.776 172.585, 84.048 162.385, 81.893 161.345 C 80.577 160.711, 75.900 158.463, 71.500 156.351 C 65.475 153.458, 61.629 150.658, 55.921 145.005 C 47.237 136.405, 42.510 128.709, 39.332 118 C 38.108 113.875, 37.083 111.247, 37.054 112.161 C 36.950 115.378, 40.785 125.923, 44.428 132.437 C 51.080 144.332, 64.155 155.397, 77.165 160.140 C 80.374 161.311, 83 162.616, 83 163.040 C 83 163.465, 82.159 163.593, 81.132 163.324 C 80.104 163.056, 77.302 163.499, 74.904 164.309 L 70.544 165.783 74.679 167.022 C 77.735 167.938, 79.620 167.979, 81.907 167.182 C 83.764 166.535, 85 166.483, 85 167.052 C 85 167.573, 84.325 168, 83.500 168 C 82.675 168, 82 168.450, 82 169 C 82 169.550, 83.350 170, 85 170 C 86.650 170, 88 170.450, 88 171 C 88 172.579, 85.706 172.205, 76.568 169.134 C 64.958 165.233, 57.930 160.867, 48.986 152 C 33.219 136.370, 26.031 117.869, 27.273 96.118 C 28.267 78.720, 34.826 63.522, 46.834 50.793 C 60.619 36.180, 77.291 28.445, 97 27.517 C 117.069 26.572, 137.706 34.681, 151.909 49.092 C 176.952 74.502, 180.171 113.584, 159.597 142.417 C 154.170 150.021, 145.227 158.362, 137.669 162.865 C 131.205 166.718, 115.856 172.281, 112.978 171.814 C 111.092 171.508, 111.098 171.393, 113.202 167.268 C 114.817 164.102, 116.261 162.749, 118.931 161.895 C 120.894 161.268, 126.100 158.902, 130.500 156.637 C 147.705 147.780, 162.127 127.640, 163.373 110.729 C 163.585 107.853, 163.558 106.625, 163.314 108 C 160.536 123.653, 155.213 134.052, 144.618 144.523 C 136.396 152.649, 130.097 156.723, 120.687 160 C 116.167 161.574, 115.065 162.530, 112.118 167.437 C 110.257 170.534, 108.932 173.266, 109.173 173.507 C 109.414 173.747, 113.355 173.050, 117.932 171.957 C 144.322 165.654, 165.401 144.568, 172.204 117.665 C 173.871 111.073, 174.146 107.514, 173.756 97.577 C 172.937 76.683, 166.909 62.937, 152 47.963 C 142.399 38.321, 132.708 32.597, 119.973 29.048 C 111.500 26.686, 98.150 25.744, 90 26.932 M 124 27 C 124 27.550, 124.450 28, 125 28 C 125.550 28, 126 27.550, 126 27 C 126 26.450, 125.550 26, 125 26 C 124.450 26, 124 26.450, 124 27 M 70.553 27.915 C 70.231 28.436, 70.394 29.125, 70.915 29.447 C 71.436 29.769, 72.125 29.606, 72.447 29.085 C 72.769 28.564, 72.606 27.875, 72.085 27.553 C 71.564 27.231, 70.875 27.394, 70.553 27.915 M 55 29 C 55 29.550, 55.450 30, 56 30 C 56.550 30, 57 29.550, 57 29 C 57 28.450, 56.550 28, 56 28 C 55.450 28, 55 28.450, 55 29 M 128.510 29.016 C 128.856 29.575, 129.557 29.774, 130.069 29.457 C 131.456 28.600, 131.198 28, 129.441 28 C 128.584 28, 128.165 28.457, 128.510 29.016 M 66 30.500 C 66 31.325, 66.450 32, 67 32 C 67.550 32, 68 31.325, 68 30.500 C 68 29.675, 67.550 29, 67 29 C 66.450 29, 66 29.675, 66 30.500 M 91 29.770 C 89.003 30.415, 85 34.104, 85 35.299 C 85 37.015, 91.361 35.028, 94.019 32.482 C 97.106 29.524, 99.090 29.139, 96.500 32 C 94.719 33.968, 94.753 33.999, 98.595 33.964 C 101.185 33.940, 103.479 33.128, 105.407 31.551 L 108.315 29.174 100.407 29.230 C 96.058 29.261, 91.825 29.504, 91 29.770 M 82.099 31.554 C 78.586 33.079, 76.087 35.609, 76.032 37.698 C 75.979 39.698, 81.454 37.242, 84.387 33.950 C 88.320 29.536, 87.860 29.054, 82.099 31.554 M 107.720 31.588 C 106.192 32.417, 105.206 33.524, 105.529 34.047 C 106.479 35.584, 112.222 35.064, 115.888 33.111 L 119.277 31.305 116.013 30.653 C 111.600 29.770, 110.933 29.845, 107.720 31.588 M 133 31 C 133 31.550, 133.450 32, 134 32 C 134.550 32, 135 31.550, 135 31 C 135 30.450, 134.550 30, 134 30 C 133.450 30, 133 30.450, 133 31 M 38.724 32.322 C 37.278 35.998, 41.856 39.973, 45.139 37.893 C 46.149 37.253, 45.952 37.027, 44.372 37.015 C 41.967 36.998, 40.397 35.438, 39.828 32.500 C 39.466 30.632, 39.394 30.620, 38.724 32.322 M 45.741 31.610 C 45.431 32.111, 45.769 33.332, 46.493 34.321 C 47.216 35.310, 48.062 35.709, 48.372 35.207 C 48.682 34.705, 48.344 33.485, 47.621 32.496 C 46.897 31.506, 46.052 31.108, 45.741 31.610 M 61 33 C 61 33.550, 61.423 34, 61.941 34 C 62.459 34, 63.160 33.550, 63.500 33 C 63.840 32.450, 63.416 32, 62.559 32 C 61.702 32, 61 32.450, 61 33 M 137.500 33 C 137.160 33.550, 137.610 34, 138.500 34 C 139.390 34, 139.840 33.550, 139.500 33 C 139.160 32.450, 138.710 32, 138.500 32 C 138.290 32, 137.840 32.450, 137.500 33 M 159.494 33.009 C 159.152 33.564, 159.173 34.970, 159.542 36.134 C 159.960 37.449, 159.701 38.601, 158.857 39.179 C 157.846 39.871, 158.009 40.021, 159.500 39.768 C 161.049 39.505, 161.430 38.783, 161.188 36.562 C 161.015 34.973, 161.461 33.324, 162.188 32.863 C 163.186 32.230, 163.095 32.027, 161.809 32.015 C 160.879 32.007, 159.837 32.454, 159.494 33.009 M 72.595 34.527 C 69.140 36.329, 67.076 38.833, 67.032 41.276 C 67.003 42.911, 67.228 42.934, 69.880 41.562 C 72.527 40.193, 77.860 32.992, 76.216 33.006 C 75.822 33.010, 74.193 33.694, 72.595 34.527 M 116.504 34.373 C 114.695 35.696, 114.708 35.773, 116.871 36.459 C 118.106 36.851, 121.428 36.854, 124.253 36.465 C 128.932 35.822, 129.222 35.635, 127.504 34.379 C 125.080 32.607, 118.925 32.603, 116.504 34.373 M 57 34.941 C 57 35.459, 57.450 36.160, 58 36.500 C 58.550 36.840, 59 36.416, 59 35.559 C 59 34.702, 58.550 34, 58 34 C 57.450 34, 57 34.423, 57 34.941 M 142 36 C 142 36.550, 142.450 37, 143 37 C 143.550 37, 144 36.550, 144 36 C 144 35.450, 143.550 35, 143 35 C 142.450 35, 142 35.450, 142 36 M 33 36.394 C 33 36.826, 34.013 38.024, 35.250 39.056 L 37.500 40.933 33.309 40.967 C 31.004 40.985, 28.869 41.403, 28.565 41.895 C 27.689 43.312, 30.105 43.742, 35.314 43.097 L 40.129 42.500 36.564 39.054 C 34.604 37.158, 33 35.961, 33 36.394 M 96.250 36.728 C 98.313 36.944, 101.688 36.944, 103.750 36.728 C 105.813 36.513, 104.125 36.336, 100 36.336 C 95.875 36.336, 94.188 36.513, 96.250 36.728 M 155.543 36.931 C 155.226 37.443, 155.350 38.098, 155.817 38.387 C 156.284 38.676, 156.667 38.257, 156.667 37.456 C 156.667 35.770, 156.351 35.623, 155.543 36.931 M 53 38 C 53 38.550, 53.450 39, 54 39 C 54.550 39, 55 38.550, 55 38 C 55 37.450, 54.550 37, 54 37 C 53.450 37, 53 37.450, 53 38 M 63.743 38.799 C 61.042 40.438, 57.312 46.645, 58.383 47.717 C 59.534 48.867, 64.049 44.818, 65.508 41.327 C 66.343 39.328, 66.902 37.569, 66.750 37.417 C 66.599 37.265, 65.245 37.887, 63.743 38.799 M 80.972 38.877 C 61.763 45.025, 46.082 60.253, 39.231 79.411 C 37.143 85.249, 36.650 88.618, 36.440 98.500 L 36.185 110.500 36.979 98.500 C 37.416 91.900, 38.416 84.747, 39.201 82.604 L 40.629 78.708 51.183 96.876 L 61.736 115.044 62.414 109.938 C 63.982 98.120, 71.873 85.762, 80.898 80.992 L 84.500 79.088 62.750 79.044 C 47.580 79.013, 41 78.666, 41 77.896 C 41 74.579, 49.121 61.952, 55.043 56.062 C 64.807 46.350, 76.985 39.955, 90 37.705 C 92.208 37.323, 92.150 37.263, 89.500 37.190 C 87.850 37.145, 84.012 37.904, 80.972 38.877 M 113.538 38.473 C 125.929 41.171, 140.851 50.057, 148.210 59.121 C 156.323 69.113, 160.229 77.416, 162.503 89.500 C 163.242 93.430, 163.859 95.167, 163.910 93.460 C 164.054 88.606, 161.265 79.104, 157.333 71.053 C 152.489 61.134, 140.451 48.903, 130.500 43.790 C 122.793 39.829, 114.045 36.956, 110.068 37.079 C 108.656 37.123, 110.217 37.751, 113.538 38.473 M 125.115 37.908 C 121.878 39.958, 130.238 41.846, 135.873 40.337 L 138.246 39.702 135.873 38.387 C 133.154 36.879, 127.160 36.612, 125.115 37.908 M 146 39 C 146 39.550, 146.450 40, 147 40 C 147.550 40, 148 39.550, 148 39 C 148 38.450, 147.550 38, 147 38 C 146.450 38, 146 38.450, 146 39 M 163.408 41.500 C 161.891 43.816, 161.891 44.184, 163.408 46.500 C 164.309 47.875, 165.598 48.986, 166.273 48.970 C 166.948 48.953, 166.713 48.481, 165.750 47.920 C 163.481 46.598, 163.517 43.747, 165.829 41.655 C 168.279 39.438, 169.585 39.570, 171.443 42.223 C 172.299 43.445, 173 43.965, 173 43.377 C 173 41.634, 169.506 39, 167.194 39 C 166.006 39, 164.314 40.118, 163.408 41.500 M 49 41 C 49 41.550, 49.450 42, 50 42 C 50.550 42, 51 41.550, 51 41 C 51 40.450, 50.550 40, 50 40 C 49.450 40, 49 40.450, 49 41 M 150 42 C 150 42.550, 150.450 43, 151 43 C 151.550 43, 152 42.550, 152 42 C 152 41.450, 151.550 41, 151 41 C 150.450 41, 150 41.450, 150 42 M 134 42.965 C 134 44.637, 138.330 46.371, 142.935 46.542 L 147.370 46.707 144.435 44.358 C 141.465 41.982, 134 40.985, 134 42.965 M 45.553 43.915 C 45.231 44.436, 45.394 45.125, 45.915 45.447 C 46.436 45.769, 47.125 45.606, 47.447 45.085 C 47.769 44.564, 47.606 43.875, 47.085 43.553 C 46.564 43.231, 45.875 43.394, 45.553 43.915 M 53.901 46.106 C 50.348 49.909, 49.661 55.787, 52.977 54.012 C 55.323 52.757, 56.498 50.665, 57.334 46.250 C 58.100 42.210, 57.562 42.187, 53.901 46.106 M 153 45 C 153 45.550, 153.450 46, 154 46 C 154.550 46, 155 45.550, 155 45 C 155 44.450, 154.550 44, 154 44 C 153.450 44, 153 44.450, 153 45 M 34.100 46.705 C 34.829 47.917, 35.640 48.694, 35.903 48.431 C 36.166 48.168, 35.570 47.176, 34.579 46.226 C 32.857 44.577, 32.835 44.598, 34.100 46.705 M 24.638 47.501 C 24.319 48.332, 24.610 49, 25.292 49 C 25.967 49, 27.729 50.121, 29.207 51.491 C 31.094 53.241, 32.110 53.630, 32.624 52.800 C 33.025 52.150, 32.808 51.436, 32.140 51.213 C 31.472 50.991, 29.641 49.727, 28.070 48.405 C 25.719 46.427, 25.112 46.267, 24.638 47.501 M 42 48 C 42 48.550, 42.450 49, 43 49 C 43.550 49, 44 48.550, 44 48 C 44 47.450, 43.550 47, 43 47 C 42.450 47, 42 47.450, 42 48 M 156.553 47.915 C 156.231 48.436, 156.394 49.125, 156.915 49.447 C 157.436 49.769, 158.125 49.606, 158.447 49.085 C 158.769 48.564, 158.606 47.875, 158.085 47.553 C 157.564 47.231, 156.875 47.394, 156.553 47.915 M 175 47.714 C 175 48.171, 173.438 49.386, 171.529 50.415 C 169.620 51.443, 168.290 52.661, 168.575 53.122 C 168.860 53.582, 169.986 53.406, 171.077 52.730 C 172.699 51.724, 173.235 51.773, 174.015 53 C 175.408 55.190, 175.231 55.792, 172.985 56.505 C 171.877 56.856, 171.228 57.560, 171.543 58.069 C 171.857 58.578, 173.885 57.983, 176.049 56.747 C 180.275 54.334, 181.356 52.435, 177.875 53.540 C 176.542 53.963, 175.430 53.708, 174.890 52.857 C 173.627 50.863, 173.811 50, 175.500 50 C 177.198 50, 177.511 48.434, 176 47.500 C 175.450 47.160, 175 47.256, 175 47.714 M 142 48.977 C 142 50.544, 146.172 52.723, 150.500 53.416 L 154.500 54.057 151.234 51.029 C 148.056 48.081, 142 46.736, 142 48.977 M 47.135 52.357 C 44.646 55.005, 43.194 61.384, 44.846 62.405 C 46.396 63.363, 48.685 59.160, 49.288 54.250 C 49.575 51.913, 49.706 50, 49.579 50 C 49.452 50, 48.352 51.060, 47.135 52.357 M 39 52 C 39 52.550, 39.450 53, 40 53 C 40.550 53, 41 52.550, 41 52 C 41 51.450, 40.550 51, 40 51 C 39.450 51, 39 51.450, 39 52 M 90 52.393 C 90 54.089, 92.704 55.287, 93.527 53.956 C 93.852 53.430, 93.840 52.550, 93.500 52 C 92.576 50.505, 90 50.794, 90 52.393 M 160 52.500 C 160 53.325, 160.450 54, 161 54 C 161.550 54, 162 53.325, 162 52.500 C 162 51.675, 161.550 51, 161 51 C 160.450 51, 160 51.675, 160 52.500 M 21 53.326 C 21 53.978, 22.360 55.114, 24.022 55.850 C 25.684 56.585, 27.709 57.852, 28.522 58.665 C 29.826 59.969, 30 59.968, 30 58.657 C 30 57.840, 27.975 56.039, 25.500 54.656 C 22.778 53.135, 21 52.609, 21 53.326 M 67.314 53.908 C 67.040 54.957, 65.844 56.090, 64.658 56.425 L 62.500 57.035 64.730 58.912 C 66.626 60.507, 66.746 60.966, 65.530 61.975 C 64.743 62.628, 63.290 63.279, 62.300 63.421 C 59.787 63.782, 59.071 71, 61.548 71 C 62.807 71, 63.070 70.415, 62.618 68.614 C 62.250 67.147, 62.559 65.781, 63.421 65.066 C 65.155 63.627, 65.852 64.683, 65.458 68.154 C 65.239 70.088, 65.681 70.945, 67.092 71.314 C 69.300 71.891, 71.013 69.420, 71.332 65.196 C 71.479 63.247, 72.154 62.411, 73.768 62.180 C 76.250 61.825, 76.603 63.285, 75.032 67.416 C 74.329 69.265, 73.577 69.792, 72.282 69.342 C 70.870 68.851, 70.980 69.218, 72.808 71.111 C 74.982 73.362, 75.191 73.398, 76.433 71.729 C 77.158 70.755, 78.049 68.092, 78.414 65.812 C 79.212 60.821, 78.078 59.730, 72.750 60.364 C 68.497 60.869, 67.737 59.431, 71.500 58 C 74.519 56.852, 74.556 56.556, 72 54 C 69.488 51.488, 67.955 51.458, 67.314 53.908 M 132.639 53.694 C 132.288 54.046, 132 55.050, 132 55.926 C 132 58.124, 127.989 60.600, 127.005 59.008 C 125.981 57.352, 124.783 60.742, 125.545 63.141 C 125.933 64.363, 127.083 65, 128.903 65 C 131.459 65, 131.685 65.320, 131.835 69.166 C 132.066 75.043, 132.678 74.980, 133.501 68.993 C 133.949 65.739, 134.782 63.637, 135.777 63.255 C 136.641 62.924, 138.222 61.778, 139.292 60.708 C 140.874 59.126, 140.981 58.602, 139.868 57.897 C 139.116 57.421, 137.713 57.024, 136.750 57.015 C 135.787 57.007, 135 56.352, 135 55.559 C 135 53.888, 133.573 52.761, 132.639 53.694 M 36 56 C 36 56.550, 36.450 57, 37 57 C 37.550 57, 38 56.550, 38 56 C 38 55.450, 37.550 55, 37 55 C 36.450 55, 36 55.450, 36 56 M 91.269 56.438 C 88.392 57.135, 85.756 57.434, 85.411 57.102 C 85.066 56.771, 84.950 57.395, 85.153 58.489 C 85.622 61.008, 88.639 61.635, 90.824 59.666 C 91.746 58.835, 93.737 57.847, 95.250 57.470 C 96.763 57.092, 98 56.382, 98 55.892 C 98 54.823, 97.900 54.831, 91.269 56.438 M 150.213 57.195 C 151.793 59.573, 152.799 60.186, 157.736 61.774 C 160.710 62.731, 160.893 62.668, 159.992 60.985 C 158.430 58.067, 153.947 55, 151.243 55 C 148.906 55, 148.844 55.133, 150.213 57.195 M 163 56.559 C 163 57.416, 163.450 57.840, 164 57.500 C 164.550 57.160, 165 56.459, 165 55.941 C 165 55.423, 164.550 55, 164 55 C 163.450 55, 163 55.702, 163 56.559 M 18 59 C 18 59.550, 18.477 60, 19.059 60 C 19.641 60, 19.840 59.550, 19.500 59 C 19.160 58.450, 18.684 58, 18.441 58 C 18.198 58, 18 58.450, 18 59 M 40.370 61.784 C 39.218 64.157, 38.501 67.168, 38.762 68.534 C 39.881 74.389, 43.256 69.081, 42.779 62.216 L 42.451 57.500 40.370 61.784 M 134.500 59 C 134.160 59.550, 134.332 60, 134.882 60 C 135.432 60, 136.160 59.550, 136.500 59 C 136.840 58.450, 136.668 58, 136.118 58 C 135.568 58, 134.840 58.450, 134.500 59 M 33 60 C 33 60.550, 33.450 61, 34 61 C 34.550 61, 35 60.550, 35 60 C 35 59.450, 34.550 59, 34 59 C 33.450 59, 33 59.450, 33 60 M 165.553 59.915 C 165.231 60.436, 165.394 61.125, 165.915 61.447 C 166.436 61.769, 167.125 61.606, 167.447 61.085 C 167.769 60.564, 167.606 59.875, 167.085 59.553 C 166.564 59.231, 165.875 59.394, 165.553 59.915 M 91.797 61.430 C 90.336 62.188, 88.885 62.551, 88.571 62.237 C 88.257 61.923, 88 62.594, 88 63.726 C 88 64.859, 88.675 66.045, 89.500 66.362 C 91.308 67.055, 91.520 70.994, 89.750 71.015 C 88.917 71.026, 89 71.354, 90 72 C 92.495 73.612, 93 73.163, 93 69.329 C 93 67.297, 93.749 64.830, 94.676 63.805 C 97.046 61.187, 95.200 59.665, 91.797 61.430 M 110.500 60.744 C 103.438 61.175, 101.461 62.464, 105.505 64.002 C 107.485 64.755, 109.233 64.766, 111.317 64.039 C 112.957 63.468, 115.861 63, 117.772 63 C 120.746 63, 121.066 62.784, 120 61.500 C 119.315 60.675, 118.248 60.085, 117.628 60.189 C 117.007 60.293, 113.800 60.543, 110.500 60.744 M 129 61.500 C 128.306 62.337, 128.197 63, 128.755 63 C 129.305 63, 130.315 62.325, 131 61.500 C 131.694 60.663, 131.803 60, 131.245 60 C 130.695 60, 129.685 60.675, 129 61.500 M 176.200 61.200 C 175.540 61.860, 175 63.271, 175 64.335 C 175 66.002, 175.296 65.893, 177.143 63.546 C 178.678 61.594, 179.946 60.948, 181.613 61.266 C 182.892 61.511, 183.702 61.326, 183.411 60.856 C 182.623 59.581, 177.578 59.822, 176.200 61.200 M 22 62.134 C 21.175 62.611, 19.150 63.500, 17.500 64.111 C 14.778 65.117, 14.686 65.290, 16.500 65.974 C 17.600 66.388, 18.730 66.374, 19.010 65.943 C 19.291 65.511, 20.757 64.848, 22.269 64.469 C 23.782 64.089, 25.237 63.425, 25.504 62.994 C 26.249 61.788, 23.687 61.159, 22 62.134 M 90 63.500 C 89.306 64.337, 89.197 65, 89.755 65 C 90.305 65, 91.315 64.325, 92 63.500 C 92.694 62.663, 92.803 62, 92.245 62 C 91.695 62, 90.685 62.675, 90 63.500 M 30.500 64 C 30.160 64.550, 30.584 65, 31.441 65 C 32.298 65, 33 64.550, 33 64 C 33 63.450, 32.577 63, 32.059 63 C 31.541 63, 30.840 63.450, 30.500 64 M 156.444 65.892 C 157.266 67.482, 159.415 69.365, 161.220 70.077 C 163.024 70.788, 164.875 71.562, 165.333 71.796 C 165.791 72.030, 165.456 70.849, 164.589 69.172 C 162.782 65.678, 159.381 63, 156.752 63 C 155.085 63, 155.062 63.219, 156.444 65.892 M 184.116 64.081 C 183.963 66.166, 179.618 68.435, 177.317 67.630 C 175.573 67.021, 175.572 67.051, 177.296 68.392 C 180.487 70.872, 185.662 68.010, 184.699 64.298 C 184.339 62.914, 184.205 62.864, 184.116 64.081 M 168 65 C 168 65.550, 168.450 66, 169 66 C 169.550 66, 170 65.550, 170 65 C 170 64.450, 169.550 64, 169 64 C 168.450 64, 168 64.450, 168 65 M 35.098 70.149 C 33.730 74.072, 33.728 75.161, 35.080 78.685 L 36.160 81.500 37.670 78.638 C 38.732 76.628, 38.955 74.695, 38.422 72.138 C 38.005 70.137, 37.739 68.162, 37.832 67.750 C 37.924 67.338, 37.594 67, 37.098 67 C 36.602 67, 35.702 68.417, 35.098 70.149 M 96.229 68.188 C 96.847 70.042, 99 70.349, 99 68.583 C 99 67.713, 98.287 67, 97.417 67 C 96.546 67, 96.011 67.534, 96.229 68.188 M 22.500 69 C 22.840 69.550, 23.316 70, 23.559 70 C 23.802 70, 24 69.550, 24 69 C 24 68.450, 23.523 68, 22.941 68 C 22.359 68, 22.160 68.450, 22.500 69 M 28.510 69.016 C 28.856 69.575, 29.557 69.774, 30.069 69.457 C 31.456 68.600, 31.198 68, 29.441 68 C 28.584 68, 28.165 68.457, 28.510 69.016 M 170 68.941 C 170 69.459, 170.450 70.160, 171 70.500 C 171.550 70.840, 172 70.416, 172 69.559 C 172 68.702, 171.550 68, 171 68 C 170.450 68, 170 68.423, 170 68.941 M 85 71.559 C 85 72.416, 85.450 72.840, 86 72.500 C 86.550 72.160, 87 71.459, 87 70.941 C 87 70.423, 86.550 70, 86 70 C 85.450 70, 85 70.702, 85 71.559 M 160 72.655 C 160 74.433, 167.861 82.472, 168.741 81.593 C 169.717 80.617, 166.754 74.952, 164.230 72.966 C 161.178 70.566, 160 70.479, 160 72.655 M 26 73 C 26 73.550, 26.702 74, 27.559 74 C 28.416 74, 28.840 73.550, 28.500 73 C 28.160 72.450, 27.459 72, 26.941 72 C 26.423 72, 26 72.450, 26 73 M 180.655 73.829 C 179.745 74.835, 179 76.285, 179 77.051 C 179 77.888, 179.622 77.557, 180.557 76.223 C 182.217 73.851, 188 73.031, 188 75.167 C 188 75.808, 188.289 76.044, 188.643 75.691 C 189.746 74.588, 186.864 72, 184.533 72 C 183.310 72, 181.565 72.823, 180.655 73.829 M 13.605 73.813 C 12.451 74.050, 12.140 74.468, 12.809 74.882 C 14.352 75.835, 22 74.988, 22 73.864 C 22 72.987, 17.747 72.961, 13.605 73.813 M 172 74 C 172 74.550, 172.450 75, 173 75 C 173.550 75, 174 74.550, 174 74 C 174 73.450, 173.550 73, 173 73 C 172.450 73, 172 73.450, 172 74 M 17.750 78.841 C 18.712 79.854, 19.864 80.486, 20.310 80.245 C 20.755 80.005, 20.305 79.191, 19.310 78.436 C 16.682 76.443, 15.711 76.696, 17.750 78.841 M 25 78 C 25 78.550, 25.450 79, 26 79 C 26.550 79, 27 78.550, 27 78 C 27 77.450, 26.550 77, 26 77 C 25.450 77, 25 77.450, 25 78 M 31.406 80.652 C 30.207 87.042, 34.094 93.402, 35.443 87.258 C 35.995 84.744, 33.797 77, 32.532 77 C 32.289 77, 31.782 78.643, 31.406 80.652 M 173.553 77.915 C 173.231 78.436, 173.394 79.125, 173.915 79.447 C 174.436 79.769, 175.125 79.606, 175.447 79.085 C 175.769 78.564, 175.606 77.875, 175.085 77.553 C 174.564 77.231, 173.875 77.394, 173.553 77.915 M 187.020 78.476 C 186.082 79.606, 184.627 80.026, 182.653 79.736 C 179.959 79.340, 179.858 79.423, 181.537 80.651 C 182.552 81.393, 183.885 82, 184.500 82 C 186.416 82, 189.296 79.388, 188.851 78.053 C 188.539 77.118, 188.054 77.231, 187.020 78.476 M 120.054 81.832 C 129.531 87.869, 135.023 96.352, 137.284 108.446 L 138.500 114.949 148.500 97.759 C 154 88.304, 158.650 80.216, 158.833 79.784 C 159.017 79.353, 149.366 79, 137.388 79 L 115.608 79 120.054 81.832 M 87.302 82.045 C 80.220 84.846, 72.720 91.829, 69.309 98.798 C 66.882 103.754, 66.517 105.678, 66.517 113.500 C 66.517 121.301, 66.885 123.252, 69.280 128.143 C 74.114 138.013, 83.703 145.142, 94.403 146.820 C 105.954 148.631, 117.224 144.821, 124.879 136.515 C 131.582 129.244, 133.489 124.149, 133.495 113.500 C 133.499 105.684, 133.136 103.758, 130.730 98.858 C 127.634 92.555, 121.399 86.283, 114.849 82.886 C 108.527 79.606, 94.547 79.179, 87.302 82.045 M 23.553 81.915 C 23.231 82.436, 23.394 83.125, 23.915 83.447 C 24.436 83.769, 25.125 83.606, 25.447 83.085 C 25.769 82.564, 25.606 81.875, 25.085 81.553 C 24.564 81.231, 23.875 81.394, 23.553 81.915 M 164 83.313 C 164 84.585, 165.350 86.919, 167 88.500 C 170.298 91.660, 171.215 94.409, 168 91.500 C 166.035 89.722, 166 89.753, 166 93.329 C 166 96.020, 166.803 97.820, 169.079 100.234 L 172.159 103.500 171.516 99.500 C 171.163 97.300, 170.769 93.377, 170.641 90.782 C 170.474 87.408, 169.730 85.342, 168.030 83.532 C 165.078 80.390, 164 80.331, 164 83.313 M 10 83.059 C 10 83.641, 10.450 83.840, 11 83.500 C 11.550 83.160, 12 82.684, 12 82.441 C 12 82.198, 11.550 82, 11 82 C 10.450 82, 10 82.477, 10 83.059 M 46 82.446 C 46 83.564, 59.484 106.832, 59.897 106.428 C 60.451 105.886, 64.048 95.805, 64.296 94.100 C 64.408 93.330, 62.475 91.499, 60 90.032 C 48.377 83.142, 46 81.855, 46 82.446 M 144.802 87.400 C 140.017 90.205, 135.847 92.770, 135.534 93.101 C 135.221 93.432, 135.863 95.682, 136.960 98.101 C 138.058 100.520, 138.966 103.513, 138.978 104.750 C 138.990 105.987, 139.338 106.988, 139.750 106.972 C 140.597 106.941, 154.425 83.055, 153.862 82.596 C 153.663 82.433, 149.586 84.595, 144.802 87.400 M 175 83.559 C 175 84.416, 175.457 84.835, 176.016 84.490 C 176.575 84.144, 176.774 83.443, 176.457 82.931 C 175.600 81.544, 175 81.802, 175 83.559 M 16 83.901 C 16 84.397, 14.425 85.732, 12.500 86.867 C 8.685 89.118, 7.806 91.125, 11 90.290 C 12.100 90.002, 13 89.381, 13 88.909 C 13 88.437, 14.350 87.353, 16 86.500 C 19.193 84.849, 19.985 83, 17.500 83 C 16.675 83, 16 83.406, 16 83.901 M 92 84.682 C 87.809 86.145, 82 89.287, 82 90.089 C 82 90.605, 90.125 90.990, 100.750 90.978 L 119.500 90.956 117 89.007 C 113.066 85.940, 106.180 83.993, 99.572 84.079 C 96.232 84.122, 92.825 84.394, 92 84.682 M 185.656 85.346 C 179.790 86.744, 180.180 87.659, 186.429 87.162 C 189.506 86.917, 191 86.341, 191 85.399 C 191 84.630, 190.887 84.043, 190.750 84.096 C 190.613 84.149, 188.320 84.711, 185.656 85.346 M 22.553 86.915 C 22.231 87.436, 22.394 88.125, 22.915 88.447 C 23.436 88.769, 24.125 88.606, 24.447 88.085 C 24.769 87.564, 24.606 86.875, 24.085 86.553 C 23.564 86.231, 22.875 86.394, 22.553 86.915 M 29.640 87.693 C 28.573 88.760, 28.951 94.346, 30.265 96.921 C 32.150 100.616, 34 100.695, 34 97.080 C 34 93.755, 30.695 86.639, 29.640 87.693 M 175.553 87.915 C 175.231 88.436, 175.394 89.125, 175.915 89.447 C 176.436 89.769, 177.125 89.606, 177.447 89.085 C 177.769 88.564, 177.606 87.875, 177.085 87.553 C 176.564 87.231, 175.875 87.394, 175.553 87.915 M 0.382 100.500 C 0.384 107.100, 0.546 109.670, 0.741 106.211 C 0.937 102.752, 0.936 97.352, 0.738 94.211 C 0.540 91.070, 0.380 93.900, 0.382 100.500 M 16.813 90.683 C 17.534 90.972, 18.397 90.936, 18.729 90.604 C 19.061 90.272, 18.471 90.036, 17.417 90.079 C 16.252 90.127, 16.015 90.364, 16.813 90.683 M 22 92.500 C 22 93.325, 22.450 94, 23 94 C 23.550 94, 24 93.325, 24 92.500 C 24 91.675, 23.550 91, 23 91 C 22.450 91, 22 91.675, 22 92.500 M 176 93 C 176 93.550, 176.450 94, 177 94 C 177.550 94, 178 93.550, 178 93 C 178 92.450, 177.550 92, 177 92 C 176.450 92, 176 92.450, 176 93 M 73.319 100.217 C 69.531 107.495, 69.365 118.222, 72.921 125.824 C 74.252 128.671, 75.657 131, 76.042 131 C 76.428 131, 77.071 125.512, 77.471 118.804 C 78.515 101.318, 78.045 102, 89.039 102 L 98.127 102 97.813 98.750 L 97.500 95.500 86.784 95.217 L 76.068 94.933 73.319 100.217 M 102.698 95.635 C 102.314 96.019, 102 97.608, 102 99.167 L 102 102 110.965 102 C 118.483 102, 120.079 102.282, 120.857 103.750 C 121.368 104.713, 122.109 110.730, 122.504 117.122 C 122.900 123.514, 123.563 129.293, 123.978 129.964 C 124.466 130.753, 125.575 129.473, 127.116 126.342 C 130.602 119.262, 130.523 107.435, 126.943 100.473 L 124.386 95.500 113.891 95.218 C 108.119 95.063, 103.083 95.251, 102.698 95.635 M 21.553 96.915 C 21.231 97.436, 21.394 98.125, 21.915 98.447 C 22.436 98.769, 23.125 98.606, 23.447 98.085 C 23.769 97.564, 23.606 96.875, 23.085 96.553 C 22.564 96.231, 21.875 96.394, 21.553 96.915 M 176.500 98 C 176.160 98.550, 176.584 99, 177.441 99 C 178.298 99, 179 98.550, 179 98 C 179 97.450, 178.577 97, 178.059 97 C 177.541 97, 176.840 97.450, 176.500 98 M 28.594 101.671 C 29.210 105.548, 31.627 110, 33.115 110 C 35.014 110, 33.879 103.434, 31.516 100.750 C 28.336 97.137, 27.896 97.276, 28.594 101.671 M 166.667 100.667 C 164.774 102.560, 167.801 112.973, 170.250 112.994 C 171.586 113.005, 171.044 105.985, 169.474 102.950 C 167.833 99.777, 167.681 99.653, 166.667 100.667 M 21.553 101.915 C 21.231 102.436, 21.394 103.125, 21.915 103.447 C 22.436 103.769, 23.125 103.606, 23.447 103.085 C 23.769 102.564, 23.606 101.875, 23.085 101.553 C 22.564 101.231, 21.875 101.394, 21.553 101.915 M 176.500 103 C 176.160 103.550, 176.584 104, 177.441 104 C 178.298 104, 179 103.550, 179 103 C 179 102.450, 178.577 102, 178.059 102 C 177.541 102, 176.840 102.450, 176.500 103 M 22 107 C 22 107.550, 22.450 108, 23 108 C 23.550 108, 24 107.550, 24 107 C 24 106.450, 23.550 106, 23 106 C 22.450 106, 22 106.450, 22 107 M 83.226 107.250 C 82.665 107.938, 81.881 113.787, 81.483 120.250 L 80.760 132 89.380 132 L 98 132 98 119 L 98 106 91.122 106 C 86.831 106, 83.862 106.470, 83.226 107.250 M 102 119 L 102 132 110.636 132 L 119.272 132 118.556 120.373 C 118.162 113.978, 117.603 108.128, 117.313 107.373 C 116.932 106.380, 114.739 106, 109.393 106 L 102 106 102 119 M 176 108 C 176 108.550, 176.450 109, 177 109 C 177.550 109, 178 108.550, 178 108 C 178 107.450, 177.550 107, 177 107 C 176.450 107, 176 107.450, 176 108 M 29 109.757 C 29 113.019, 31.029 116.789, 33.741 118.566 C 35.079 119.443, 36.320 120.011, 36.498 119.830 C 37.594 118.717, 35.296 113.710, 32.403 110.906 C 29.278 107.877, 29 107.783, 29 109.757 M 165.651 110.682 C 164.538 111.796, 164.935 117.616, 166.355 120.993 C 167.669 124.119, 167.729 124.145, 168.341 121.858 C 169.356 118.067, 169.039 113.635, 167.619 111.766 C 166.895 110.812, 166.009 110.324, 165.651 110.682 M 22 112 C 22 112.550, 22.702 113, 23.559 113 C 24.416 113, 24.840 112.550, 24.500 112 C 24.160 111.450, 23.459 111, 22.941 111 C 22.423 111, 22 111.450, 22 112 M 175 113 C 175 113.550, 175.675 114, 176.500 114 C 177.325 114, 178 113.550, 178 113 C 178 112.450, 177.325 112, 176.500 112 C 175.675 112, 175 112.450, 175 113 M 23 117 C 23 117.550, 23.423 118, 23.941 118 C 24.459 118, 25.160 117.550, 25.500 117 C 25.840 116.450, 25.416 116, 24.559 116 C 23.702 116, 23 116.450, 23 117 M 174.500 118 C 174.840 118.550, 175.541 119, 176.059 119 C 176.577 119, 177 118.550, 177 118 C 177 117.450, 176.298 117, 175.441 117 C 174.584 117, 174.160 117.450, 174.500 118 M 31.421 120.585 C 32.230 123.851, 36.675 129, 38.687 129 C 41.799 129, 39.454 124.346, 34.398 120.490 L 30.700 117.670 31.421 120.585 M 162.150 123 C 161.375 125.224, 161.450 126.968, 162.442 129.750 L 163.779 133.500 164.890 130.685 C 166.137 127.523, 166.250 125.535, 165.370 122.250 C 164.542 119.163, 163.394 119.431, 162.150 123 M 25 122 C 25 122.550, 25.450 123, 26 123 C 26.550 123, 27 122.550, 27 122 C 27 121.450, 26.550 121, 26 121 C 25.450 121, 25 121.450, 25 122 M 173 123 C 173 123.550, 173.450 124, 174 124 C 174.550 124, 175 123.550, 175 123 C 175 122.450, 174.550 122, 174 122 C 173.450 122, 173 122.450, 173 123 M 26 127 C 26 127.550, 26.450 128, 27 128 C 27.550 128, 28 127.550, 28 127 C 28 126.450, 27.550 126, 27 126 C 26.450 126, 26 126.450, 26 127 M 172 127.559 C 172 128.416, 172.457 128.835, 173.016 128.490 C 173.575 128.144, 173.774 127.443, 173.457 126.931 C 172.600 125.544, 172 125.802, 172 127.559 M 35.508 131.016 C 37.150 134.190, 41.583 138, 43.635 138 C 47.049 138, 43.193 132.623, 37.967 130.098 L 34.057 128.209 35.508 131.016 M 158.628 131.164 C 157.424 133.001, 156.979 135.326, 157.192 138.663 L 157.500 143.500 159.776 139.239 C 161.572 135.877, 161.875 134.295, 161.212 131.740 L 160.373 128.501 158.628 131.164 M 28 131 C 28 131.550, 28.450 132, 29 132 C 29.550 132, 30 131.550, 30 131 C 30 130.450, 29.550 130, 29 130 C 28.450 130, 28 130.450, 28 131 M 170 132 C 170 132.550, 170.450 133, 171 133 C 171.550 133, 172 132.550, 172 132 C 172 131.450, 171.550 131, 171 131 C 170.450 131, 170 131.450, 170 132 M 30 136 C 30 136.550, 30.450 137, 31 137 C 31.550 137, 32 136.550, 32 136 C 32 135.450, 31.550 135, 31 135 C 30.450 135, 30 135.450, 30 136 M 167.500 136 C 167.160 136.550, 167.610 137, 168.500 137 C 169.390 137, 169.840 136.550, 169.500 136 C 169.160 135.450, 168.710 135, 168.500 135 C 168.290 135, 167.840 135.450, 167.500 136 M 83 137.993 C 85.739 140.129, 93.297 143, 96.178 143 C 97.594 143, 98 142.219, 98 139.500 L 98 136 89.250 136.022 L 80.500 136.044 83 137.993 M 102 139.628 L 102 143.256 106.250 142.576 C 110.016 141.974, 119 137.663, 119 136.458 C 119 136.206, 115.175 136, 110.500 136 L 102 136 102 139.628 M 40 138.605 C 40 138.861, 40.712 140.157, 41.582 141.485 C 43.077 143.767, 49.554 146.780, 50.636 145.697 C 51.384 144.949, 48.772 141.132, 47.022 140.415 C 44.018 139.184, 40 138.149, 40 138.605 M 152.640 140.250 C 151.866 141.488, 150.990 144.481, 150.691 146.903 L 150.149 151.305 152.649 148.805 C 154.182 147.272, 155.365 144.699, 155.706 142.153 C 156.333 137.479, 154.920 136.602, 152.640 140.250 M 32.500 140 C 32.840 140.550, 33.541 141, 34.059 141 C 34.577 141, 35 140.550, 35 140 C 35 139.450, 34.298 139, 33.441 139 C 32.584 139, 32.160 139.450, 32.500 140 M 165 141 C 165 141.550, 165.450 142, 166 142 C 166.550 142, 167 141.550, 167 141 C 167 140.450, 166.550 140, 166 140 C 165.450 140, 165 140.450, 165 141 M 35 144 C 35 144.550, 35.450 145, 36 145 C 36.550 145, 37 144.550, 37 144 C 37 143.450, 36.550 143, 36 143 C 35.450 143, 35 143.450, 35 144 M 162.510 145.016 C 162.856 145.575, 163.557 145.774, 164.069 145.457 C 165.456 144.600, 165.198 144, 163.441 144 C 162.584 144, 162.165 144.457, 162.510 145.016 M 115 147.833 C 110.223 150.149, 108.251 150.500, 100 150.499 C 92.248 150.499, 89.598 150.083, 85.595 148.237 C 82.898 146.993, 80.527 146.140, 80.327 146.340 C 80.019 146.647, 94.041 171.463, 98.695 178.848 C 100.137 181.137, 100.411 180.788, 109.668 164.848 C 120.347 146.459, 121.186 144.966, 120.785 145.083 C 120.628 145.129, 118.025 146.367, 115 147.833 M 146.390 147.156 C 145.230 148.445, 143.818 151.401, 143.253 153.725 C 142.287 157.696, 142.338 157.889, 144.102 156.945 C 146.660 155.576, 149.188 150.419, 148.810 147.340 L 148.500 144.812 146.390 147.156 M 46.286 147.377 C 46.900 149.251, 53.142 153, 55.648 153 C 58.518 153, 58.639 151.889, 56.029 149.526 C 53.681 147.402, 45.718 145.645, 46.286 147.377 M 38 148 C 38 148.550, 38.450 149, 39 149 C 39.550 149, 40 148.550, 40 148 C 40 147.450, 39.550 147, 39 147 C 38.450 147, 38 147.450, 38 148 M 159 149 C 159 149.550, 159.423 150, 159.941 150 C 160.459 150, 161.160 149.550, 161.500 149 C 161.840 148.450, 161.416 148, 160.559 148 C 159.702 148, 159 148.450, 159 149 M 41 152 C 41 152.550, 41.675 153, 42.500 153 C 43.325 153, 44 152.550, 44 152 C 44 151.450, 43.325 151, 42.500 151 C 41.675 151, 41 151.450, 41 152 M 110.500 152 C 109.400 152.473, 106.588 152.891, 104.250 152.930 L 100 153 100.003 164.750 L 100.005 176.500 103.318 171 C 108.252 162.807, 114 152.398, 114 151.654 C 114 150.821, 113.017 150.919, 110.500 152 M 156.583 151.866 C 156.152 152.563, 156.070 153.403, 156.400 153.733 C 157.295 154.628, 158.271 153.312, 157.787 151.862 C 157.449 150.846, 157.213 150.846, 156.583 151.866 M 138.327 154.386 C 135.327 156.917, 132.404 163, 134.187 163 C 136.053 163, 142 156.225, 142 154.100 C 142 151.457, 141.777 151.474, 138.327 154.386 M 45 155.441 C 45 156.298, 45.450 157, 46 157 C 46.550 157, 47 156.577, 47 156.059 C 47 155.541, 46.550 154.840, 46 154.500 C 45.450 154.160, 45 154.584, 45 155.441 M 55.482 155.980 C 57.479 158.187, 63.045 159.580, 65.736 158.548 C 68.844 157.355, 63.260 154.048, 58.095 154.022 C 53.767 154, 53.722 154.035, 55.482 155.980 M 153 156 C 153 156.550, 153.450 157, 154 157 C 154.550 157, 155 156.550, 155 156 C 155 155.450, 154.550 155, 154 155 C 153.450 155, 153 155.450, 153 156 M 48.500 159 C 48.840 159.550, 49.541 160, 50.059 160 C 50.577 160, 51 159.550, 51 159 C 51 158.450, 50.298 158, 49.441 158 C 48.584 158, 48.160 158.450, 48.500 159 M 129.334 159.479 C 128.173 160.292, 126.309 162.506, 125.192 164.398 L 123.162 167.839 125.959 166.865 C 128.969 165.815, 132.323 162.573, 133.320 159.750 C 134.084 157.583, 132.221 157.456, 129.334 159.479 M 149 159 C 149 159.550, 149.450 160, 150 160 C 150.550 160, 151 159.550, 151 159 C 151 158.450, 150.550 158, 150 158 C 149.450 158, 149 158.450, 149 159 M 64.500 159.906 L 61.500 160.645 65.139 162.455 C 69.643 164.695, 77.331 163.902, 74.879 161.450 C 73.088 159.659, 68.358 158.955, 64.500 159.906 M 52 162 C 52 162.550, 52.702 163, 53.559 163 C 54.416 163, 54.840 162.550, 54.500 162 C 54.160 161.450, 53.459 161, 52.941 161 C 52.423 161, 52 161.450, 52 162 M 145 162 C 145 162.550, 145.450 163, 146 163 C 146.550 163, 147 162.550, 147 162 C 147 161.450, 146.550 161, 146 161 C 145.450 161, 145 161.450, 145 162 M 116.711 165.975 C 112.592 169.863, 112.557 169.951, 115.115 169.975 C 117.956 170.002, 122.401 166.988, 124.042 163.922 C 125.937 160.381, 121.246 161.695, 116.711 165.975 M 56.510 165.016 C 56.856 165.575, 57.557 165.774, 58.069 165.457 C 59.456 164.600, 59.198 164, 57.441 164 C 56.584 164, 56.165 164.457, 56.510 165.016 M 141 165 C 141 165.550, 141.450 166, 142 166 C 142.550 166, 143 165.550, 143 165 C 143 164.450, 142.550 164, 142 164 C 141.450 164, 141 164.450, 141 165 M 60.500 167 C 60.160 167.550, 60.610 168, 61.500 168 C 62.390 168, 62.840 167.550, 62.500 167 C 62.160 166.450, 61.710 166, 61.500 166 C 61.290 166, 60.840 166.450, 60.500 167 M 137 168 C 137 168.550, 137.450 169, 138 169 C 138.550 169, 139 168.550, 139 168 C 139 167.450, 138.550 167, 138 167 C 137.450 167, 137 167.450, 137 168 M 65 170 C 65 170.550, 65.450 171, 66 171 C 66.550 171, 67 170.550, 67 170 C 67 169.450, 66.550 169, 66 169 C 65.450 169, 65 169.450, 65 170 M 132 170 C 132 170.550, 132.450 171, 133 171 C 133.550 171, 134 170.550, 134 170 C 134 169.450, 133.550 169, 133 169 C 132.450 169, 132 169.450, 132 170 M 70 172 C 70 172.550, 70.450 173, 71 173 C 71.550 173, 72 172.550, 72 172 C 72 171.450, 71.550 171, 71 171 C 70.450 171, 70 171.450, 70 172 M 128 172 C 128 172.550, 128.450 173, 129 173 C 129.550 173, 130 172.550, 130 172 C 130 171.450, 129.550 171, 129 171 C 128.450 171, 128 171.450, 128 172 M 74.553 172.915 C 74.231 173.436, 74.394 174.125, 74.915 174.447 C 75.436 174.769, 76.125 174.606, 76.447 174.085 C 76.769 173.564, 76.606 172.875, 76.085 172.553 C 75.564 172.231, 74.875 172.394, 74.553 172.915 M 123 174 C 123 174.550, 123.450 175, 124 175 C 124.550 175, 125 174.550, 125 174 C 125 173.450, 124.550 173, 124 173 C 123.450 173, 123 173.450, 123 174 M 79 175 C 79 175.550, 79.450 176, 80 176 C 80.550 176, 81 175.550, 81 175 C 81 174.450, 80.550 174, 80 174 C 79.450 174, 79 174.450, 79 175 M 118 175 C 118 175.550, 118.450 176, 119 176 C 119.550 176, 120 175.550, 120 175 C 120 174.450, 119.550 174, 119 174 C 118.450 174, 118 174.450, 118 175 M 141 174.466 C 141 175.761, 144.483 182, 145.206 182 C 145.665 182, 145.122 180.200, 144 178 C 142.198 174.467, 141 173.056, 141 174.466 M 57.451 178.461 C 54.841 183.308, 56.036 183.728, 58.796 178.933 C 60.041 176.770, 60.667 175, 60.187 175 C 59.708 175, 58.476 176.557, 57.451 178.461 M 84 176 C 84 176.550, 84.450 177, 85 177 C 85.550 177, 86 176.550, 86 176 C 86 175.450, 85.550 175, 85 175 C 84.450 175, 84 175.450, 84 176 M 113.500 176 C 113.160 176.550, 113.610 177, 114.500 177 C 115.390 177, 115.840 176.550, 115.500 176 C 115.160 175.450, 114.710 175, 114.500 175 C 114.290 175, 113.840 175.450, 113.500 176 M 89 177 C 89 177.550, 89.450 178, 90 178 C 90.550 178, 91 177.550, 91 177 C 91 176.450, 90.550 176, 90 176 C 89.450 176, 89 176.450, 89 177 M 109 177 C 109 177.550, 109.450 178, 110 178 C 110.550 178, 111 177.550, 111 177 C 111 176.450, 110.550 176, 110 176 C 109.450 176, 109 176.450, 109 177 M 67.345 180.543 C 67.019 181.392, 66.976 182.310, 67.249 182.583 C 67.523 182.856, 67.986 182.161, 68.279 181.040 C 68.903 178.657, 68.210 178.289, 67.345 180.543 M 71 181.612 C 71 182.564, 70.213 184.231, 69.250 185.317 C 67.558 187.225, 67.571 187.254, 69.625 186.177 C 71.929 184.969, 73.370 181.347, 71.906 180.442 C 71.408 180.134, 71 180.661, 71 181.612 M 123.076 182.050 C 123.118 182.847, 123.795 185.075, 124.581 187 L 126.009 190.500 125.427 186.500 C 124.867 182.655, 122.914 178.957, 123.076 182.050 M 77.868 185.391 C 77.135 186.998, 77.103 188.362, 77.769 189.551 C 78.572 190.987, 78.834 190.535, 79.156 187.161 C 79.612 182.375, 79.385 182.062, 77.868 185.391 M 82.396 184.823 C 82.379 185.746, 82.034 187.625, 81.630 189 C 80.926 191.399, 80.959 191.421, 82.448 189.559 C 84.108 187.482, 84.503 184.429, 83.214 183.632 C 82.782 183.365, 82.414 183.901, 82.396 184.823 M 90 184.387 C 90 184.599, 91.350 184.971, 93 185.213 C 94.650 185.455, 96 185.282, 96 184.827 C 96 184.372, 94.650 184, 93 184 C 91.350 184, 90 184.174, 90 184.387 M 111.704 187.750 C 112.317 191.719, 112.706 192.627, 113.469 191.864 C 114.216 191.118, 112.824 184, 111.932 184 C 111.489 184, 111.386 185.688, 111.704 187.750 M 92.143 190.143 C 91.438 191.271, 91.081 192.414, 91.350 192.683 C 91.618 192.952, 92.361 192.194, 93 191 C 94.511 188.176, 93.809 187.474, 92.143 190.143" stroke="none" fill="#191630" fill-rule="evenodd"/></svg>